<svg xmlns="http://www.w3.org/2000/svg" xmlns:xlink="http://www.w3.org/1999/xlink" viewBox="0 0 901 662"><defs><linearGradient id="linear-gradient" x1="462.49" y1="520.06" x2="662.15" y2="520.06" gradientUnits="userSpaceOnUse"><stop offset="0" stop-color="#aa80f9"/><stop offset="1" stop-color="#6165d7"/></linearGradient><linearGradient id="linear-gradient-2" x1="-884.9" y1="-723.12" x2="-775.88" y2="-26.2" gradientTransform="scale(-1 1) rotate(-33.92 614.606 -597.427)" gradientUnits="userSpaceOnUse"><stop offset="0" stop-color="#ff9085"/><stop offset="1" stop-color="#fb6fbb"/></linearGradient><linearGradient id="linear-gradient-3" x1="445.88" y1="250.02" x2="684.12" y2="250.02" xlink:href="#linear-gradient-2"/><linearGradient id="linear-gradient-4" x1="445.88" y1="250.02" x2="684.12" y2="250.02" xlink:href="#linear-gradient-2"/><linearGradient id="linear-gradient-5" x1="429.07" y1="255.57" x2="510.09" y2="255.57" gradientUnits="userSpaceOnUse"><stop offset=".49" stop-color="#ebeff2"/><stop offset="1" stop-color="#fff"/></linearGradient><linearGradient id="linear-gradient-6" x1="359.8" y1="214.63" x2="634.85" y2="214.63" gradientUnits="userSpaceOnUse"><stop offset="0" stop-color="#fcb148"/><stop offset=".05" stop-color="#fdb946"/><stop offset=".14" stop-color="#fec144"/><stop offset=".32" stop-color="#ffc444"/><stop offset=".48" stop-color="#fdb946"/><stop offset=".78" stop-color="#f99c4c"/><stop offset=".87" stop-color="#f8924f"/><stop offset="1" stop-color="#f8924f"/></linearGradient><linearGradient id="linear-gradient-7" x1="346.28" y1="345.05" x2="402.81" y2="345.05" gradientUnits="userSpaceOnUse"><stop offset="0" stop-color="#40447e"/><stop offset="1" stop-color="#3c3b6b"/></linearGradient><linearGradient id="linear-gradient-8" x1="429.62" y1="379.21" x2="514.58" y2="379.21" xlink:href="#linear-gradient-7"/><linearGradient id="linear-gradient-9" x1="3706.75" y1="363.16" x2="3735.75" y2="363.16" gradientTransform="matrix(-1 0 0 1 4096.22 0)" gradientUnits="userSpaceOnUse"><stop offset="0" stop-color="#444b8c"/><stop offset="1" stop-color="#3e4177"/></linearGradient><linearGradient id="linear-gradient-10" x1="3759.45" y1="313.43" x2="3718.17" y2="394.35" gradientTransform="matrix(-1 0 0 1 4096.22 0)" gradientUnits="userSpaceOnUse"><stop offset="0" stop-color="#ebeff2"/><stop offset=".99" stop-color="#b7c0ce"/></linearGradient><linearGradient id="linear-gradient-11" x1="3594.71" y1="407.78" x2="3630.06" y2="407.78" xlink:href="#linear-gradient-9"/><linearGradient id="linear-gradient-12" x1="3658.94" y1="347.17" x2="3608.63" y2="445.8" xlink:href="#linear-gradient-10"/><linearGradient id="linear-gradient-13" x1="320.48" y1="332.7" x2="639.39" y2="332.7" xlink:href="#linear-gradient-6"/><linearGradient id="linear-gradient-14" x1="332.36" y1="410.11" x2="456.7" y2="282.81" xlink:href="#linear-gradient-7"/><linearGradient id="linear-gradient-15" x1="331.33" y1="309.61" x2="346.28" y2="309.61" xlink:href="#linear-gradient-6"/><linearGradient id="linear-gradient-16" x1="332.65" y1="309.55" x2="344.96" y2="309.55" xlink:href="#linear-gradient-7"/><linearGradient id="linear-gradient-17" x1="388.97" y1="328.64" x2="415.56" y2="328.64" xlink:href="#linear-gradient-6"/><linearGradient id="linear-gradient-18" x1="392.26" y1="327.68" x2="412.27" y2="327.68" xlink:href="#linear-gradient-7"/><linearGradient id="linear-gradient-19" x1="483.84" y1="358.21" x2="524.8" y2="358.21" xlink:href="#linear-gradient-6"/><linearGradient id="linear-gradient-20" x1="488.44" y1="356.85" x2="520.19" y2="356.85" xlink:href="#linear-gradient-7"/><linearGradient id="linear-gradient-21" x1="671.57" y1="411.8" x2="538.67" y2="90.74" xlink:href="#linear-gradient-6"/><linearGradient id="linear-gradient-22" x1="545.84" y1="302.81" x2="738.36" y2="302.81" xlink:href="#linear-gradient-7"/><linearGradient id="linear-gradient-23" x1="587.85" y1="393.44" x2="574.25" y2="460.98" gradientUnits="userSpaceOnUse"><stop offset="0" stop-color="#e38ddd"/><stop offset="1" stop-color="#9571f6"/></linearGradient><linearGradient id="linear-gradient-24" x1="710.69" y1="418.17" x2="697.1" y2="485.71" xlink:href="#linear-gradient-23"/><linearGradient id="linear-gradient-25" x1="630.8" y1="529.62" x2="631.67" y2="438.83" xlink:href="#linear-gradient"/><linearGradient id="linear-gradient-26" x1="553.27" y1="442.4" x2="733.09" y2="442.4" xlink:href="#linear-gradient-7"/><linearGradient id="linear-gradient-27" x1="370.96" y1="369.86" x2="612.67" y2="369.86" gradientTransform="rotate(2.13 -620.802 -5504.65)" gradientUnits="userSpaceOnUse"><stop offset="0" stop-color="#444b8c"/><stop offset="1" stop-color="#26264f"/></linearGradient><linearGradient id="linear-gradient-28" x1="475.72" y1="427.8" x2="509.12" y2="335.11" xlink:href="#linear-gradient-27"/><linearGradient id="linear-gradient-29" x1="483.46" y1="169.63" x2="278.26" y2="725.38" gradientTransform="rotate(2.13 -620.802 -5504.65)" gradientUnits="userSpaceOnUse"><stop offset="0" stop-color="#ffc444"/><stop offset="1" stop-color="#f36f56"/></linearGradient><linearGradient id="linear-gradient-30" x1="-278.04" y1="144.29" x2="-120.54" y2="424.86" gradientTransform="translate(455.64 -.05) skewX(5)" xlink:href="#linear-gradient-2"/><linearGradient id="linear-gradient-31" x1="294.21" y1="542.76" x2="394.39" y2="542.76" xlink:href="#linear-gradient"/><linearGradient id="linear-gradient-32" x1="193.29" y1="390.73" x2="296.2" y2="390.73" xlink:href="#linear-gradient"/><linearGradient id="linear-gradient-33" x1="289.05" y1="384.73" x2="325.84" y2="479.5" xlink:href="#linear-gradient"/><linearGradient id="linear-gradient-34" x1="275.87" y1="389.85" x2="312.67" y2="484.62" xlink:href="#linear-gradient"/><linearGradient id="linear-gradient-35" x1="303.34" y1="457.43" x2="279.44" y2="493.7" xlink:href="#linear-gradient"/><linearGradient id="linear-gradient-36" x1="416.75" y1="597.57" x2="503.46" y2="597.57" xlink:href="#linear-gradient"/><linearGradient id="linear-gradient-37" x1="470.74" y1="302.26" x2="463.56" y2="313.88" gradientTransform="translate(-131.4)" xlink:href="#linear-gradient-29"/><linearGradient id="linear-gradient-38" x1="573.1" y1="439.84" x2="576" y2="445.81" gradientTransform="translate(-131.4)" xlink:href="#linear-gradient-29"/><linearGradient id="linear-gradient-39" x1="-683.85" y1="591.79" x2="-683.85" y2="573.07" gradientTransform="translate(1118.16)" xlink:href="#linear-gradient-29"/><linearGradient id="linear-gradient-40" x1="-740.91" y1="597.13" x2="-740.91" y2="574.57" gradientTransform="translate(1118.16)" xlink:href="#linear-gradient-29"/><linearGradient id="linear-gradient-41" x1="-753.53" y1="508.51" x2="-679.72" y2="508.51" gradientTransform="translate(1118.16)" gradientUnits="userSpaceOnUse"><stop offset="0" stop-color="#311944"/><stop offset="1" stop-color="#893976"/></linearGradient><linearGradient id="linear-gradient-42" x1="-755.88" y1="453.49" x2="-702.7" y2="542.8" xlink:href="#linear-gradient-41"/><linearGradient id="linear-gradient-43" x1="-734.94" y1="441.03" x2="-681.77" y2="530.34" xlink:href="#linear-gradient-41"/><linearGradient id="linear-gradient-44" x1="-1015.67" y1="-4787.02" x2="-959.35" y2="-4671.21" gradientTransform="rotate(-172.14 -118.168 -2249.864)" xlink:href="#linear-gradient"/><linearGradient id="linear-gradient-45" x1="503.45" y1="357.55" x2="560.48" y2="474.84" gradientTransform="translate(-131.4)" xlink:href="#linear-gradient"/><linearGradient id="linear-gradient-46" x1="-721.27" y1="342.88" x2="-710.37" y2="360.2" gradientTransform="translate(1118.16)" xlink:href="#linear-gradient-23"/><linearGradient id="linear-gradient-47" x1="-708.12" y1="340.22" x2="-720.09" y2="359.6" gradientTransform="translate(1118.16)" xlink:href="#linear-gradient-29"/><linearGradient id="linear-gradient-48" x1="-1297.44" y1="-241.3" x2="-1309.03" y2="-222.55" gradientTransform="rotate(-13.66 1971.066 -7061.73)" xlink:href="#linear-gradient-29"/><linearGradient id="linear-gradient-49" x1="536.32" y1="272.47" x2="605.68" y2="382.7" gradientTransform="translate(-131.4)" xlink:href="#linear-gradient-2"/><linearGradient id="linear-gradient-50" x1="497.1" y1="360.29" x2="553.2" y2="475.64" gradientTransform="translate(-131.4)" xlink:href="#linear-gradient"/><linearGradient id="linear-gradient-51" x1="495.21" y1="361.56" x2="552.25" y2="478.84" gradientTransform="translate(-131.4)" xlink:href="#linear-gradient"/><clipPath id="clippath"><path class="cls-38" d="M333.48 409.76c-12.54-22.78 1.22-59.77 17.43-81.21 18.92-25.03 33.58-18.81 46.78-39.42 24.58-38.38-16.15-75.68 5.57-116.35 17.76-33.25 51.71-20.93 69.7-58.64 12.98-27.21 1.54-46.7 20.64-66.67 1.63-1.71 19.51-19.86 40.52-15.91 21.2 3.98 33.2 28.14 36.89 44.7 6.82 30.6-13.72 39.8-18.94 79.04-7.12 53.43 26.74 68.02 13.36 106.29-11.04 31.59-36.67 28.93-48.22 64.21-10.72 32.76 7.48 46.95-1.85 68.3-21.45 49.11-156.32 62.13-181.9 15.67Z"/></clipPath><clipPath id="clippath-1"><path d="M494.16 427.9c-3.98-.34-12.33-4.58-14.05-6.58-11.45-13.33-34.52-36.9-34.23-55.47.05-3.17 14.06-6.73 15.92-9.72 8.39-4.43 11.57-5.45 17.47-13.59 17.42-24.01-26.51-65.75 21.73-83.2 35.34-12.78 66.13-1.76 59.85-57.2-6.28-55.45 33.41-158.71 93.82-122.47 34.67 20.8 2.52 69.58 21.38 103.71 17.92 32.43 5.06 60.33-29.29 81.76-34.35 21.43-14.87 35.9-3.26 66.96 13.94 37.3-43.97 46.55-71.08 48.53-21.83 1.6-76.32 20.4-78.27 47.28Z" style="fill:url(#linear-gradient-4)"/></clipPath><clipPath id="clippath-2"><path class="cls-46" d="m352.61 226.07-173.07 4.14c-4.49.11-7.82 3.72-7.45 8.06l30.37 351.35c.38 4.36 4.31 7.58 8.78 7.18l172.45-15.38c4.19-.37 7.29-4.1 6.92-8.31l-29.72-339.62c-.37-4.2-4.07-7.53-8.28-7.42Z"/></clipPath><clipPath id="clippath-3"><path class="cls-46" d="m391.29 580.75-188.14 16.77-24.5-283.44 188.66-7.31 23.98 273.98z"/></clipPath><style>.cls-1{fill:#26264f}.cls-3,.cls-4{fill:#fff}.cls-6,.cls-7,.cls-8{fill:#97a6b7}.cls-4{mix-blend-mode:soft-light}.cls-7,.cls-8{mix-blend-mode:multiply}.cls-4{opacity:.7}.cls-38{fill:#d8dee8}.cls-46{fill:none}.cls-7{opacity:.1}.cls-50{fill:#f4f7fa}.cls-8{opacity:.5}.cls-68{fill:#fcfdfe}</style></defs><g style="isolation:isolate"><g id="Illustration"><path class="cls-50" d="M606.16 69.77c20.14 28.83-3.47 75.57 26.41 97.25 29.09 21.11 64.82-13.49 92.23 4.68 40.67 26.95 33.24 150.27-26.22 226.89-17.88 23.04-32.82 32.01-39.44 58.07-14.21 55.96 35.73 89.25 26.22 116.92-21.4 62.32-350.46 114.61-482.49-72.67-61.67-87.47-70.89-213.77-15.8-309.7C286.64 17.86 560.98 5.08 606.16 69.77Z"/><path d="M466.16 600.2c-1.94 0-3.56-1.52-3.66-3.48a3.666 3.666 0 0 1 3.48-3.84c.07 0 7.1-.35 18.24-1.39a3.666 3.666 0 0 1 .68 7.3c-11.32 1.06-18.27 1.4-18.56 1.42h-.18Zm36.68-3.37c-1.83 0-3.41-1.36-3.63-3.22a3.667 3.667 0 0 1 3.2-4.08c6.09-.74 12.18-1.57 18.1-2.46 2-.3 3.87 1.08 4.17 3.08.3 2-1.08 3.87-3.08 4.17-5.98.9-12.14 1.74-18.3 2.49-.15.02-.3.03-.45.03Zm36.31-5.5c-1.73 0-3.27-1.24-3.6-3-.37-1.99.95-3.9 2.94-4.27 6.13-1.13 12.14-2.35 17.86-3.62 1.97-.44 3.93.8 4.37 2.78a3.66 3.66 0 0 1-2.78 4.37c-5.81 1.3-11.91 2.53-18.13 3.68-.22.04-.45.06-.67.06Zm35.82-8.04c-1.61 0-3.09-1.07-3.53-2.7-.53-1.95.62-3.97 2.57-4.5a298.42 298.42 0 0 0 17.36-5.26c1.92-.65 4 .38 4.64 2.3.65 1.92-.38 4-2.3 4.64-5.58 1.88-11.56 3.69-17.78 5.38-.32.09-.65.13-.96.13Zm34.72-11.84a3.67 3.67 0 0 1-3.37-2.22 3.66 3.66 0 0 1 1.92-4.81c5.86-2.52 11.25-5.2 16.02-7.97a3.672 3.672 0 0 1 5.01 1.33c1.01 1.75.42 3.99-1.33 5.01-5.03 2.91-10.68 5.73-16.8 8.36-.47.2-.96.3-1.45.3Zm31.38-18.68c-1.02 0-2.04-.43-2.77-1.26a3.66 3.66 0 0 1 .36-5.17c4.71-4.09 8.43-8.44 11.07-12.92a3.677 3.677 0 0 1 5.02-1.3 3.677 3.677 0 0 1 1.3 5.02c-3.04 5.16-7.27 10.11-12.57 14.72-.69.6-1.55.9-2.4.9Zm17.31-31c-.09 0-.18 0-.27-.01a3.66 3.66 0 0 1-3.38-3.92c.07-.88.1-1.77.1-2.66 0-4.43-.82-9.11-2.43-13.91-.65-1.92.39-4 2.3-4.64 1.91-.64 4 .39 4.64 2.3 1.87 5.55 2.82 11.02 2.82 16.25 0 1.07-.04 2.15-.12 3.2a3.657 3.657 0 0 1-3.65 3.39Zm-10.57-34.41c-1.21 0-2.4-.6-3.09-1.7-2.92-4.58-6.51-9.36-10.68-14.2a3.67 3.67 0 0 1 .38-5.17 3.67 3.67 0 0 1 5.17.38c4.4 5.11 8.21 10.17 11.31 15.05 1.09 1.71.58 3.97-1.12 5.06-.61.39-1.29.57-1.96.57Zm-23.63-27.88c-.91 0-1.83-.34-2.54-1.02-4.09-3.93-8.62-7.99-13.46-12.06a3.652 3.652 0 0 1-.44-5.16 3.652 3.652 0 0 1 5.16-.44c4.96 4.18 9.61 8.34 13.82 12.39 1.46 1.4 1.5 3.72.1 5.18-.72.75-1.68 1.12-2.64 1.12Z" style="fill:url(#linear-gradient)"/><path class="cls-38" d="M333.48 409.76c-12.54-22.78 1.22-59.77 17.43-81.21 18.92-25.03 33.58-18.81 46.78-39.42 24.58-38.38-16.15-75.68 5.57-116.35 17.76-33.25 51.71-20.93 69.7-58.64 12.98-27.21 1.54-46.7 20.64-66.67 1.63-1.71 19.51-19.86 40.52-15.91 21.2 3.98 33.2 28.14 36.89 44.7 6.82 30.6-13.72 39.8-18.94 79.04-7.12 53.43 26.74 68.02 13.36 106.29-11.04 31.59-36.67 28.93-48.22 64.21-10.72 32.76 7.48 46.95-1.85 68.3-21.45 49.11-156.32 62.13-181.9 15.67Z"/><g style="clip-path:url(#clippath)"><path class="cls-4" d="M350.32 445.47a.355.355 0 0 1-.33-.33c-.02-.2.13-.37.33-.38 22.89-1.8 44.4-8.31 63.93-19.35 18.5-10.46 37.63-21.27 46.55-41.89 6.75-15.6 3.58-27.31-.42-42.14-3.9-14.42-8.75-32.38-5.07-59.51 2.1-15.49 4.71-34.77 18.67-52.7 8.13-10.45 15.86-14.8 22.69-18.65 7.16-4.03 12.81-7.22 16.3-16.06 5.69-14.42 2.55-27.03-1.08-41.64-2.24-9.01-4.56-18.33-5.24-29.34-1.9-30.99 13.59-63.84 46.06-97.63a.35.35 0 0 1 .5-.01c.14.14.15.36.01.5-32.32 33.65-47.75 66.31-45.86 97.09.67 10.94 2.98 20.23 5.22 29.22 3.66 14.72 6.83 27.44 1.05 42.07-3.58 9.08-9.62 12.48-16.61 16.42-6.77 3.81-14.43 8.13-22.48 18.47-13.84 17.78-16.44 36.96-18.53 52.36-3.66 26.99 1.17 44.87 5.05 59.23 4.04 14.96 7.24 26.78.39 42.6-9.02 20.85-28.25 31.72-46.85 42.23-19.62 11.09-41.23 17.63-64.23 19.44h-.05Z"/><path class="cls-4" d="M468.27 238.61c-.13 0-.25-.09-.31-.22-17.28-42.17-19.3-74.51-17.96-94.21 1.46-21.38 7.1-32.94 7.16-33.05.09-.18.3-.25.48-.16s.25.3.16.48c-.06.11-5.64 11.58-7.09 32.83-1.34 19.62.69 51.83 17.91 93.84.07.18-.01.39-.19.47-.05.02-.11.03-.16.03Zm-13.93 65.81a.351.351 0 0 1-.32-.27c-.05-.19.07-.38.26-.43 23.55-5.57 43.95-14.95 60.63-27.88 13.34-10.34 24.36-22.95 32.73-37.5 14.26-24.77 15.94-46.81 15.96-47.03.01-.2.18-.34.38-.33.2.01.34.18.33.38-.02.22-1.71 22.43-16.05 47.34-8.42 14.63-19.5 27.31-32.92 37.71-16.77 12.99-37.26 22.41-60.9 28.01-.04 0-.07.01-.11 0ZM434.93 414.9c-.08 0-.15-.04-.22-.09-17.06-15.52-30.37-32.4-39.54-50.18-7.34-14.23-12.07-29.06-14.06-44.07-3.38-25.58 2.48-43.09 2.54-43.26.06-.19.27-.28.45-.22.19.06.29.27.22.45-.06.17-5.87 17.55-2.5 42.98 3.11 23.47 14.89 58.78 53.36 93.78.15.13.16.36.02.5a.4.4 0 0 1-.29.12Zm72.77-296.38a.34.34 0 0 1-.31-.23c-.07-.18.02-.39.2-.46 17.11-6.7 31.46-16.28 42.63-28.48 8.94-9.76 15.89-21.2 20.65-34.01 8.11-21.83 7.04-40.31 7.02-40.5-.01-.2.14-.37.33-.38.2-.01.36.14.38.33.01.18 1.1 18.8-7.06 40.76-4.79 12.9-11.78 24.43-20.79 34.26-11.25 12.28-25.69 21.93-42.91 28.67-.05.02-.1.03-.15.02Z"/></g><path d="M494.16 427.9c-3.98-.34-12.33-4.58-14.05-6.58-11.45-13.33-34.52-36.9-34.23-55.47.05-3.17 14.06-6.73 15.92-9.72 8.39-4.43 11.57-5.45 17.47-13.59 17.42-24.01-26.51-65.75 21.73-83.2 35.34-12.78 66.13-1.76 59.85-57.2-6.28-55.45 33.41-158.71 93.82-122.47 34.67 20.8 2.52 69.58 21.38 103.71 17.92 32.43 5.06 60.33-29.29 81.76-34.35 21.43-14.87 35.9-3.26 66.96 13.94 37.3-43.97 46.55-71.08 48.53-21.83 1.6-76.32 20.4-78.27 47.28Z" style="fill:url(#linear-gradient-2)"/><path d="M494.16 427.9c-3.98-.34-12.33-4.58-14.05-6.58-11.45-13.33-34.52-36.9-34.23-55.47.05-3.17 14.06-6.73 15.92-9.72 8.39-4.43 11.57-5.45 17.47-13.59 17.42-24.01-26.51-65.75 21.73-83.2 35.34-12.78 66.13-1.76 59.85-57.2-6.28-55.45 33.41-158.71 93.82-122.47 34.67 20.8 2.52 69.58 21.38 103.71 17.92 32.43 5.06 60.33-29.29 81.76-34.35 21.43-14.87 35.9-3.26 66.96 13.94 37.3-43.97 46.55-71.08 48.53-21.83 1.6-76.32 20.4-78.27 47.28Z" style="fill:url(#linear-gradient-3)"/><g style="clip-path:url(#clippath-1)"><g style="opacity:.7;mix-blend-mode:soft-light"><path class="cls-68" d="m463.56 395.16-.4-.75C578.04 332.1 643.5 208.38 638.26 63.46l.85-.03c2.48 68.68-11.53 135.12-40.51 192.12-30.47 59.93-77.16 108.21-135.04 139.6Z"/><path class="cls-68" d="M651.07 346.93c-34.42-9.65-91.19-7.48-126.55 4.84l-.28-.8c35.5-12.37 92.5-14.55 127.05-4.85l-.23.82Zm-165.1 35.74-.6-.6c13.87-13.66 20.3-33.8 19.11-59.87-.87-19.12-5.74-40.91-14.47-64.79l.8-.29c8.76 23.96 13.65 45.84 14.52 65.04 1.2 26.32-5.32 46.68-19.36 60.52ZM602.4 247.31l-.63-.57c24.81-27.09 62.48-35.69 89.7-38.13l.08.85c-27.08 2.43-64.52 10.97-89.15 37.86Zm27.54-79.46-.85-.02c1.19-41.37-24.12-76.68-39.31-94.04l.64-.56c15.28 17.46 40.73 52.96 39.52 94.62Z"/></g></g><path style="fill:url(#linear-gradient-5)" d="M429.07 131.73h81.02v247.68h-81.02z"/><path class="cls-6" d="M435.21 155.25h68.73v15.51h-68.73zm0 27.52h68.73v15.51h-68.73zm0 27.52h68.73v15.51h-68.73zm0 27.52h68.73v15.51h-68.73zm0 27.52h68.73v15.51h-68.73zm0 27.52h68.73v15.51h-68.73zm0 27.52h68.73v15.51h-68.73zm-6.14-188.64v247.68l-21.8-7.5V155.25l21.16-22.84.55-.59.09-.09z"/><path class="cls-8" d="M400.57 192.77h13.41v3.5h-13.41zm0 43.54h13.41v3.5h-13.41zm0 43.53h13.41v3.5h-13.41zm0 43.53h13.41v3.5h-13.41zm34.64-168.12h68.73v3h-68.73zm0 27.52h68.73v3h-68.73zm0 27.52h68.73v3h-68.73zm0 27.52h68.73v3h-68.73zm0 27.52h68.73v3h-68.73zm0 27.52h68.73v3h-68.73zm0 27.52h68.73v3h-68.73z"/><path class="cls-7" d="M507.4 379.41h-78.33l-21.79-7.51v-47.98c.86-2.99 1.78-5.83 2.76-8.45 9.18-24.46 6.19-34.4 8.12-52.3 1.9-17.67-2.24-112.44 10.28-130.77.16-.24.33-.47.5-.68.01.03.03.07.04.1.03.07.06.14.09.2 4.94 11.13 7.73 17.55 9.33 23.22.29 1.02.54 2.01.75 3 .82 3.77 1.17 7.52 1.35 12.51.12 3.33.16 7.21.22 12.01.01.96.03 1.96.04 3 0 .6.02 1.22.03 1.84.05 3.66.09 7.23.15 10.67.07 4.19.16 8.21.32 12.01.04 1.02.1 2.02.15 3 .26 4.55.66 8.74 1.29 12.51.79 4.73 1.95 8.78 3.69 12.01.59 1.1 1.24 2.1 1.97 3 1.63 2.03 3.64 3.54 6.1 4.47 3.11 1.17 6.14 3.97 8.96 8.04 2.25 3.25 4.38 7.31 6.3 12.01.4.97.79 1.98 1.17 3 1.42 3.84 2.72 8.04 3.86 12.51.97 3.82 1.83 7.84 2.55 12.01.17.99.34 1.99.49 3 .63 4.06 1.13 8.25 1.48 12.51.33 3.95.54 7.96.6 12.01.02 1 .03 2 .03 3 0 .62 0 1.23-.01 1.85-.04 3.97.22 7.5.73 10.66 4.05 25.05 23.55 27.01 26.79 43.53Z"/><path class="cls-8" d="M332.29 105.58h20.05v5.13h-20.05zm0 63.75h20.05v5.13h-20.05zm0 63.76h20.05v5.13h-20.05z"/><path class="cls-6" d="M311.85 70.91v308.5l-31.91-9.35V100.2l31.91-29.29z"/><path class="cls-38" d="M311.85 71.64h99.84v307.77h-99.84z"/><path class="cls-6" d="M329.86 108.28h19.64v48.36h-19.64zm27 0h20.05v48.36h-20.05zm27.42 0h19.64v48.36h-19.64zm-54.42 63.75h19.64v48.36h-19.64zm27 0h20.05v48.36h-20.05zm27.42 0h19.64v48.36h-19.64zm-54.42 63.75h19.64v48.36h-19.64zm27 0h20.05v48.36h-20.05zm27.42 0h19.64v48.36h-19.64zm-54.42 63.76h19.64v48.36h-19.64zm27 0h20.05v48.36h-20.05zm27.42 0h19.64v48.36h-19.64z"/><path class="cls-8" d="M329.86 108.28h19.64v5.13h-19.64zm0 63.75h19.64v5.13h-19.64zm0 63.75h19.64v5.13h-19.64zm0 63.76h19.64v5.13h-19.64z"/><path class="cls-7" d="M411.69 374.3v5.11h-99.84l-31.92-9.35v-45.67c2.14-9.74 4.71-19.22 7.77-27.05 11.73-30.04 7.91-42.26 10.36-64.24s-3-141.18 13.78-161.46c15.68 33.95 14.6 32.48 15.14 68.64.29 19.34.27 36.44 2.86 49.14 2.25 11.04 6.48 18.74 14.6 21.69 1.71.62 3.39 1.61 5.05 2.94 5.28 4.21 10.24 11.83 14.45 21.73 5.53 13.01 9.78 29.96 11.75 48.36a213.834 213.834 0 0 1 1.22 25.16v1.58c.08 13.15 3.11 22.21 7.37 29.17 1.8 2.95 3.83 5.51 5.95 7.85 8.47 9.34 18.39 14.97 21.47 26.4Z"/><path class="cls-6" d="M219.14 116.37v245.24l-27.83-7.43V139.66l25.31-21.18 2.2-1.84.32-.27z"/><path class="cls-50" d="M219.14 116.13h77.33v245.48h-77.33z"/><path class="cls-6" d="M233.87 143.24h9.82v202.25h-9.82zm20.46 0h10.23v202.25h-10.23zm20.45 0h10.23v202.25h-10.23z"/><path class="cls-8" d="M240.41 143.24h3.27v202.25h-3.27zm20.87 0h3.27v202.25h-3.27zm20.87 0h3.27v202.25h-3.27z"/><path class="cls-7" d="m296.47 361.6-77.33.01-27.82-7.43v-24.95c12.89-27.79 8.65-39.34 11.43-59.96 2.72-20.12-3.02-126.15 13.88-150.79.61-.9 1.25-1.69 1.92-2.35.09.17.19.34.28.51.11.19.21.38.32.57 8.79 15.75 12.82 23.27 14.73 31.26 1.87 7.79 1.73 16.03 2.03 32.77.38 20.59.3 38.51 4.52 50.84.88 2.6 1.96 4.95 3.27 7.02 2.55 4.04 5.99 7.03 10.64 8.79.52.2 1.04.38 1.59.54 1.81.54 3.6 1.39 5.37 2.51 1.1.7 2.2 1.5 3.27 2.42 3.61 3.04 7.06 7.22 10.23 12.3 2.68 4.29 5.15 9.21 7.37 14.63 1.01 2.48 1.97 5.06 2.86 7.73.14.41.27.82.41 1.24 5.01 15.42 7.98 33.7 7.72 52.31-.11 8.1 1.16 14.63 3.33 20.03Z"/><path d="M360.46 225.16c-1.5-1.32 0-9.65 0-9.65l158.59-11.4 115.79 3.07v11.4l-274.38 6.58Z" style="fill:url(#linear-gradient-6)"/><path style="fill:url(#linear-gradient-7)" d="m402.81 371.93-56.53-2.47v-51.29l56.53 10.47v43.29z"/><path d="M514.49 415.5c-.11 3.25-72.91 1.09-72.91 1.09l-11.96-47.08 15.79-27.44s72.04-14.75 69.08 73.43Z" style="fill:url(#linear-gradient-8)"/><path d="M378.74 334.93h.01c1.03.15 1.98.73 2.92 1.55.91.66 2 1.43 2 2.42v.02c3.49 5.18 5.78 14.76 5.79 25.49.02 14.28-4.05 25.83-9.41 27.16h.01c-.36.07-4.85 2.4-19.01.11-.38-8.69-.6-57.91-.6-57.91s11.31-.84 18.28 1.15Z" style="fill:url(#linear-gradient-9)"/><path d="M350.48 361.67c0 16.34 5.29 29.88 11.7 30.22 6.29.33 11.29-12.2 11.28-27.98-.01-15.76-5.02-29.24-11.3-30.13-6.4-.91-11.68 11.56-11.68 27.89Z" style="fill:url(#linear-gradient-10)"/><path class="cls-3" d="M355.5 362.05c0 11.59 3.53 21.23 7.82 21.52 4.24.28 7.63-8.68 7.62-20.01 0-11.32-3.41-20.92-7.64-21.47-4.29-.56-7.81 8.38-7.81 19.96Z"/><path d="M488.44 373.38h.01c1.26.18 2.41.88 3.56 1.89 1.1.8 2.43 1.74 2.43 2.95v.03c4.25 6.32 7.05 17.99 7.06 31.07.02 17.41-4.93 31.49-11.47 33.11l.01.01c-.44.09-5.92 2.93-23.17.13-.46-10.6-.73-70.59-.73-70.59s13.79-1.02 22.28 1.4Z" style="fill:url(#linear-gradient-11)"/><path d="M453.99 405.98c0 19.92 6.45 36.42 14.26 36.84 7.66.41 13.76-14.87 13.74-34.1-.01-19.21-6.12-35.64-13.77-36.72-7.8-1.11-14.24 14.09-14.24 33.99Z" style="fill:url(#linear-gradient-12)"/><path class="cls-3" d="M460.1 406.43c0 14.13 4.3 25.88 9.54 26.23 5.17.34 9.3-10.58 9.29-24.39 0-13.79-4.15-25.5-9.31-26.17-5.23-.68-9.52 10.21-9.51 24.33Z"/><path d="m360.46 220.77-32.2 6.25a5.511 5.511 0 0 0-4.42 4.81c-5.55 49.17-2.81 103.47-1.68 120.93a9.9 9.9 0 0 0 5.51 8.25l16.56 8.15c2.25 1.11 4.87-.57 4.79-3.07-.03-.97-.04-1.95-.04-2.93 0-18.41 5.14-33.33 11.49-33.33s11.49 14.92 11.49 33.33c0 5.21-.41 10.14-1.15 14.53-.42 2.51.85 4.99 3.14 6.11l66.54 32.76c2.1 1.03 4.55-.53 4.49-2.87-.03-1.08-.04-2.16-.04-3.25 0-26.3 7.17-47.62 16.01-47.62s16.01 21.32 16.01 47.62c0 6.98-.51 13.61-1.42 19.59-.32 2.11.79 4.18 2.7 5.13l46.52 22.91 24.01-1.8 90.62-248.92-278.93 13.44Z" style="fill:url(#linear-gradient-13)"/><path d="M551.51 371.77 545.84 237c-18.87-1.57-186.42-4.79-222.12-4.08-2.35 21.27-3.16 43.44-3.23 63.12l158.45 35.26 72.58 40.47Z" style="fill:url(#linear-gradient-14)"/><path d="m345.14 250.42-12.53-.7c-.69-.04-1.27.51-1.27 1.2v111.89l12.89 6.35c.68.33 1.39.41 2.05.29V251.62c0-.64-.5-1.17-1.14-1.2Z" style="fill:url(#linear-gradient-15)"/><path d="m344.81 367.98-12.16-5.99V251.04l12.31.69v116.32c-.05-.02-.1-.04-.15-.07Z" style="fill:url(#linear-gradient-16)"/><path d="m413.96 254.26-22.73-1.27c-.96-.05-1.78.7-1.78 1.67-.1 13.99-.77 107.15-.34 136.61l26.44 13.02V255.95c0-.9-.7-1.64-1.59-1.69Z" style="fill:url(#linear-gradient-17)"/><path d="M392.38 389.21c-.36-30.48.24-116.52.36-132.84l19.54 1.09V399l-19.89-9.79Z" style="fill:url(#linear-gradient-18)"/><path d="m521.47 260.25-33.92-1.89a3.512 3.512 0 0 0-3.71 3.51c0 22.74.03 143.12.01 176.04l40.91 20.14h.04v-194.3c0-1.87-1.46-3.41-3.32-3.51Z" style="fill:url(#linear-gradient-19)"/><path d="M488.45 435.05c0-17 .01-60.85-.01-171.5v-.53l31.75 1.77v185.88l-31.74-15.63Z" style="fill:url(#linear-gradient-20)"/><path d="M545.85 227.43V237l2.27.26v130.9l-2.28.45v84.22a4.62 4.62 0 0 0 4.88 4.61l182.27-10.48a5.7 5.7 0 0 0 5.37-5.69V229.21c0-3.77-2.38-7.14-5.94-8.35-53.74-18.26-114.25-17.39-179.99-1.75a8.566 8.566 0 0 0-6.58 8.33Z" style="fill:url(#linear-gradient-21)"/><path style="fill:url(#linear-gradient-22)" d="m738.36 365.06-192.52 3.55V237h192.52v128.06z"/><path d="m592.77 403.48-17.42.67c-2.02.08-3.67 1.67-3.67 3.56v10.53c0 1.89 1.64 3.34 3.67 3.25l17.42-.8c1.99-.09 3.6-1.68 3.6-3.55v-10.41c0-1.87-1.61-3.32-3.6-3.24Z" style="fill:url(#linear-gradient-23)"/><path d="m720.69 398.58-15.44.59c-1.79.07-3.25 1.57-3.25 3.34v9.91c0 1.78 1.46 3.15 3.25 3.07l15.44-.71c1.76-.08 3.19-1.57 3.19-3.33v-9.8c0-1.76-1.43-3.13-3.19-3.06Z" style="fill:url(#linear-gradient-24)"/><path class="cls-3" d="M738.36 441.28V229.22c0-3.77-2.38-7.14-5.94-8.35-42.12-14.31-88.39-16.87-138.09-9.78 21.77 14.86 31.41 30.39 35.41 44.21 8.23 28.41-8.95 43.93 2.31 74.96 12.61 34.75 42.41 38.03 69.38 69.28 9.34 10.82 19.2 26 26.22 47.74l5.34-.31a5.7 5.7 0 0 0 5.37-5.69Z" style="mix-blend-mode:overlay;opacity:.3"/><path d="m534.28 421 23.57 11.66 180.51-8.58v19.82c0 4.6-3.56 8.41-8.15 8.72l-176.19 12.04c-5.4.37-10.82-.34-15.95-2.08l-13.31-4.53 1.88-32.61c.22-3.79 4.24-6.13 7.64-4.45Z" style="fill:url(#linear-gradient-25)"/><path d="M553.27 440.81v11.09c0 3.34 2.81 6 6.15 5.81l170.45-9.56c1.81-.1 3.23-1.6 3.23-3.42V430.5c0-1.95-1.63-3.51-3.58-3.42l-170.69 7.91a5.81 5.81 0 0 0-5.55 5.81Z" style="fill:url(#linear-gradient-26)"/><path d="m355.23 218.15 32 359.05c.48 5.44-3.29 10.27-8.4 10.74l-173.12 17.83c-10.36.55-15.84-5.07-16.3-10.71L158.7 222.28c-.45-5.5 4.69-10.69 14.92-11.07l171.53-2.52c5.08-.1 9.61 4.16 10.08 9.46Z" style="fill:url(#linear-gradient-27)"/><path d="m363.09 217.26 32.29 361.2c.49 5.47-3.31 10.33-8.44 10.81l-179.63 16.58c-5.51.51-10.41-3.73-10.88-9.41l-30.98-375.03c-.46-5.54 3.65-10.15 9.12-10.25l178.39-3.41c5.1-.1 9.66 4.19 10.14 9.52Z" style="fill:url(#linear-gradient-28)"/><path d="M269.5 220.31c.16 1.88-1.19 3.44-3.02 3.48-1.83.04-3.45-1.46-3.61-3.34-.16-1.89 1.19-3.44 3.02-3.48 1.83-.04 3.44 1.46 3.61 3.34Z" style="fill:url(#linear-gradient-29)"/><g style="clip-path:url(#clippath-2)"><path class="cls-3" d="m369.74 334.57-188.61 8.27-4.56-52.78 188.71-6.5 4.46 51.01z"/><path class="cls-38" d="m391.29 580.75-188.14 16.77-24.5-283.44 188.66-7.31 23.98 273.98z"/><path style="fill:url(#linear-gradient-30)" d="m366.6 298.62-188.68 7.03-6.51-75.25 188.82-4.51 6.37 72.73z"/><path class="cls-3" d="M218.53 282.75c.25 2.86-1.93 5.26-4.86 5.36-2.94.1-5.52-2.14-5.77-5s1.94-5.26 4.87-5.36c2.94-.1 5.51 2.14 5.76 5Zm37.4-1.25c.25 2.84-1.9 5.22-4.8 5.32-2.9.1-5.45-2.13-5.7-4.97s1.91-5.23 4.81-5.32c2.9-.09 5.44 2.13 5.69 4.97Z"/><path class="cls-3" d="m258.81 255.54-53.55 1.54c-3.29.09-5.73 2.76-5.45 5.96l1.71 19.79 4.99-.17c-.04-3.38 2.62-6.13 6.14-6.25 3.52-.11 6.62 2.45 7.17 5.8l24.26-.81c-.04-3.36 2.58-6.09 6.05-6.2 3.47-.11 6.54 2.43 7.08 5.77l9.63-.32-1.7-19.56c-.27-3.16-3.11-5.65-6.33-5.55Z"/><path class="cls-3" d="m246.98 262.18-.94 1.9-33.83-17.26.95-1.91 33.82 17.27zm13.3-.39-.93 1.89-33.68-17.23.95-1.9 33.66 17.24zm83.94-2.17-68.07 2.04-.57-6.6 68.07-1.96.57 6.52zm1.09 12.46-68.06 2.19-.57-6.6 68.06-2.11.57 6.52z"/><g style="clip-path:url(#clippath-3)"><path class="cls-3" d="M393.29 609.93c-1.62 0-3.23-.63-4.45-1.87l-95.9-97.99a6.19 6.19 0 0 1-1.75-3.82l-10.56-121.41-90.31-78.05a6.236 6.236 0 0 1-.64-8.79 6.236 6.236 0 0 1 8.79-.64l92.22 79.7a6.215 6.215 0 0 1 2.13 4.17l10.59 121.7 94.34 96.39c2.41 2.46 2.36 6.4-.09 8.81a6.185 6.185 0 0 1-4.36 1.78Z"/><path class="cls-3" d="M176.13 428.57c-3.28 0-6.02-2.56-6.21-5.87a6.23 6.23 0 0 1 5.86-6.58L281.73 410l94.99-63.51a6.23 6.23 0 0 1 8.64 1.72 6.23 6.23 0 0 1-1.72 8.64l-96.4 64.45c-.92.62-1.99.98-3.1 1.04l-107.64 6.22c-.12 0-.24.01-.37.01Z"/><path class="cls-3" d="M241.01 546.57c-2.26 0-4.18-1.73-4.38-4.02l-10.46-120.72a4.395 4.395 0 0 1 4-4.76 4.39 4.39 0 0 1 4.76 4l10.09 116.36 191.32-15.28a4.393 4.393 0 0 1 4.73 4.03 4.393 4.393 0 0 1-4.03 4.73l-195.67 15.63c-.12 0-.24.01-.35.01Z"/><path class="cls-3" d="M287.87 605.44c-.43 0-.86-.11-1.26-.33a2.57 2.57 0 0 1-.98-3.49L366.7 457.6c-.45-4.34-2.63-25.29-4.63-46.17-2.88-29.93-3.74-41.56-3.73-46.37-5.82-.05-22.99 1.12-38.62 2.47-1.42.12-2.65-.92-2.78-2.33l-2.11-24.25L245.5 344a2.57 2.57 0 0 1-2.68-2.45 2.57 2.57 0 0 1 2.45-2.68l71.78-3.16c1.39-.07 2.55.97 2.67 2.34l2.11 24.15c3.69-.31 10.86-.89 18-1.38 22.29-1.54 22.57-.99 23.5.84.35.68.38 1.46.11 2.15-.45 5.48 4.91 60.3 8.45 94.06.06.53-.06 1.06-.32 1.53L290.1 604.13c-.47.84-1.34 1.31-2.24 1.31Zm75.09-240.82Zm0 0Z"/><path d="M393.29 604.8c-.29 0-.57-.11-.79-.33l-95.9-97.99c-.18-.18-.29-.42-.31-.67l-2.08-23.9a1.099 1.099 0 1 1 2.19-.19l2.05 23.5 95.63 97.71a1.093 1.093 0 0 1-.79 1.86Z" style="fill:url(#linear-gradient-31)"/><path d="M295.1 480.47c-.56 0-1.04-.43-1.09-1l-.76-8.76a1.099 1.099 0 1 1 2.19-.19l.76 8.76c.05.6-.39 1.14-1 1.19h-.1Zm-1.52-17.52c-.56 0-1.04-.43-1.09-1l-.76-8.76a1.099 1.099 0 1 1 2.19-.19l.76 8.76c.05.6-.39 1.14-1 1.19h-.1Zm-1.52-17.52c-.56 0-1.04-.43-1.09-1l-.76-8.76a1.099 1.099 0 1 1 2.19-.19l.76 8.76c.05.6-.39 1.14-1 1.19h-.1Zm-1.52-17.52c-.56 0-1.04-.43-1.09-1l-.76-8.76a1.099 1.099 0 1 1 2.19-.19l.76 8.76c.05.6-.39 1.14-1 1.19h-.1Zm-1.52-17.52c-.56 0-1.04-.43-1.09-1l-.76-8.76c-.05-.6.4-1.14 1-1.19.6-.05 1.14.4 1.19 1l.76 8.76c.05.6-.4 1.14-1 1.19h-.1Zm-1.52-17.52c-.56 0-1.04-.43-1.09-1l-.76-8.76c-.05-.6.4-1.14 1-1.19a1.1 1.1 0 0 1 1.19 1l.76 8.76c.05.6-.4 1.14-1 1.19h-.1Zm-6.6-14.93c-.25 0-.51-.09-.72-.27l-6.65-5.75c-.46-.4-.51-1.09-.11-1.55.4-.46 1.09-.51 1.55-.11l6.65 5.75c.46.4.51 1.09.11 1.55-.22.25-.52.38-.83.38Zm-13.31-11.5c-.25 0-.51-.09-.72-.27l-6.65-5.75c-.46-.4-.51-1.09-.11-1.55.4-.46 1.09-.51 1.55-.11l6.65 5.75c.46.4.51 1.09.11 1.55-.22.25-.52.38-.83.38Zm-13.31-11.5c-.25 0-.51-.09-.72-.27l-6.65-5.75c-.46-.4-.51-1.09-.11-1.55.4-.46 1.09-.51 1.55-.11l6.65 5.75c.46.4.51 1.09.11 1.55-.22.25-.52.38-.83.38Zm-13.31-11.5c-.25 0-.51-.09-.72-.27l-6.65-5.75c-.46-.4-.51-1.09-.11-1.55.4-.46 1.09-.51 1.55-.11l6.65 5.75c.46.4.51 1.09.11 1.55-.22.25-.52.38-.83.38Zm-13.31-11.5c-.25 0-.51-.09-.72-.27l-6.65-5.75c-.46-.4-.51-1.09-.11-1.55.4-.46 1.09-.51 1.55-.11l6.65 5.75c.46.4.51 1.09.11 1.55-.22.25-.52.38-.83.38Zm-13.31-11.5c-.25 0-.51-.09-.72-.27l-6.65-5.75c-.46-.4-.51-1.09-.11-1.55.4-.46 1.09-.51 1.55-.11l6.65 5.75c.46.4.51 1.09.11 1.55-.22.25-.52.38-.83.38Zm-13.31-11.5c-.25 0-.51-.09-.72-.27l-6.65-5.75c-.46-.4-.51-1.09-.11-1.55.4-.46 1.09-.51 1.55-.11l6.65 5.75c.46.4.51 1.09.11 1.55-.22.25-.52.38-.83.38Z" style="fill:url(#linear-gradient-32)"/></g></g><path class="cls-3" d="M319.93 465.21c-17.41-60.84-68.19-54.76-83.37-109.74-12.47-45.15 16.28-68.96-1.16-106.76-8.2-17.78-22.58-29.8-37.48-38.02l-23.36.45c-5.47.1-9.57 4.72-9.12 10.25l30.98 375.03c.47 5.68 5.37 9.91 10.88 9.41l147.28-13.59c-9.42-11.95-18.35-26.57-24.55-44.13-13.13-37.17-.47-49.26-10.1-82.9Z" style="mix-blend-mode:soft-light;opacity:.48"/><path d="M330.3 398c0 15.61-21.87 44.1-31.77 56.19-2.46 3.01-7.07 3.01-9.53 0-9.9-12.09-31.77-40.58-31.77-56.19 0-20.18 16.36-36.53 36.53-36.53s36.53 16.36 36.53 36.53Z" style="fill:url(#linear-gradient-33)"/><circle class="cls-3" cx="293.76" cy="398" r="20.38" transform="rotate(-9.22 293.644 397.9)"/><g style="opacity:.3;mix-blend-mode:multiply"><path d="M293.6 439.19c2.32-15.26 12.4-20.15 10.67-34.56-2-16.62-16.71-21.05-17.07-35.84-.06-2.38.27-4.68.88-6.88-17.48 2.73-30.85 17.85-30.85 36.09 0 15.61 21.87 44.1 31.77 56.19a6.125 6.125 0 0 0 5.7 2.18c-1.77-6.69-1.83-12.4-1.1-17.19Z" style="fill:url(#linear-gradient-34)"/></g><circle cx="293.76" cy="471.96" r="7.47" style="fill:url(#linear-gradient-35)"/><ellipse cx="460.1" cy="597.57" rx="43.35" ry="22.52" style="fill:url(#linear-gradient-36)"/><path d="M338.97 314.12c.73-1.13 2.06-3.54 2.15-6.77.17-6.28-4.49-11.18-5.12-10.89-.34.15.09 1.99.33 2.81.5 1.7 1.04 1.86.99 2.64-.09 1.61-2.41 1.67-3.63 3.8-.88 1.53-.95 3.72 0 5.45 1.58 2.87 5.13 2.97 5.28 2.97Z" style="fill:url(#linear-gradient-37)"/><path style="fill:url(#linear-gradient-38)" d="m438.44 450.49-1.79-6.15 7.47-5.54 4.66-1.74-2.76 8.61-7.58 4.82z"/><path d="M429.19 574.54s4.09 10.28 3.01 14.84c4.39-.09 7.23-.65 7.23-.65s-1.76-4.69-2.11-7.01c-.47-3.14-.43-8.22-.43-8.22l-7.7 1.03Z" style="fill:url(#linear-gradient-39)"/><path class="cls-1" d="M384.14 598.59c.26.32.73.99.77 1.89.02.49-.09.89-.23 1.27-.7 1.83-1.79 2.08-2.97 4.02-.72 1.19-.59 1.55-1.25 2.08-.87.71-1.93.75-2.84.76-1.54.02-3.77-.04-6.57-.37a158.7 158.7 0 0 1 4.69-5.75c.73-.85 1.45-1.68 2.18-2.49l4.31-1.46c.64.02 1.27.03 1.91.05Z"/><path d="M380.55 577.65s-2.47 12.86.67 16.46c2.67 3.6-1.29 1.03-1.29 1.03l-4.73 4.13-2.84 4.9s2.61-12.59 1.92-17.59c-.7-5-1.05-8.37-1.05-8.37l7.32-.58Z" style="fill:url(#linear-gradient-40)"/><path d="M371.25 436.95s-6.62 5.93-6.62 30.32 3.14 77.38 3.14 77.38l5.02 37.93s5.2.19 8.69-.86c3.14-14.29 8.25-38.47 5.81-58.68-1.05-21.96 8.71-49.5 8.71-49.5s8.37 27.88 14.29 41.83c5.93 13.94 17.21 57.62 18.25 60.76 6.93.63 9.9-1.2 9.9-1.2s-4.45-47-8.63-64.78c-4.18-17.78-3.83-60.65-10.81-72.85-15.68-6.27-47.75-.35-47.75-.35Z" style="fill:url(#linear-gradient-41)"/><path d="M371.25 436.95s-6.62 5.93-6.62 30.32 3.14 77.38 3.14 77.38l5.02 37.93s5.2.19 8.69-.86c3.14-14.29 8.25-38.47 5.81-58.68-1.05-21.96 8.71-49.5 8.71-49.5s8.37 27.88 14.29 41.83c5.93 13.94 17.21 57.62 18.25 60.76 6.93.63 9.89-1.2 9.89-1.2s-4.45-47-8.63-64.78c-4.18-17.78-3.83-60.65-10.81-72.85-15.68-6.27-47.75-.35-47.75-.35Z" style="fill:url(#linear-gradient-42)"/><path d="M405.66 481.66c2.07 13.42 6.2 20.65 16.52 29.94 8.26 6.2 2.07 19.62 5.16 29.94 1.03 3.1 4.13 6.2 5.16 9.29 3.84 7.68.25 17.08 2 25.22 2.71-.37 3.94-1.13 3.94-1.13s-4.45-47-8.63-64.78c-4.18-17.78-3.83-60.65-10.81-72.85-15.68-6.27-47.75-.35-47.75-.35s-6.62 5.93-6.62 30.32c0 1.98.02 4.15.06 6.46 6.88 6.08 20.94 7.44 29.61.69.52-.39 1.08-.63 1.66-.75.03-.08.04-.13.04-.13s.01.05.04.12c3.95-.72 8.72 4.41 9.62 7.99Z" style="mix-blend-mode:multiply;fill:url(#linear-gradient-43);opacity:.25"/><path class="cls-1" d="M431.13 593.29s-1.02 0-.93 1.32c.09 1.32-.46 5.84 4.72 6.05 5.18.21 5.98-.37 6.15-.37s-1.36-4.33-1.36-4.33l-1.66-2.12-4.46-.47-2.46-.09Z"/><path d="M442.61 597.83c-.11-1.09-.72-2.81-1.34-4.2-.91-2.06-.16-2.83-1.04-4.7-.3-.65-.6-1.26-1.23-1.87-.15-.14-1.58-1.46-3.66-1.39-.41.01-1.04.04-1.72.4-.8.43-1.21 1.07-1.55 1.63-.54.89-.42 1.16-1.25 3.7-.07.2-.21.65-.33 1.26-.09.47-.12.86-.14 1.13 1.36 0 6.58.21 7.68 1.02 1.1.81 1.66 2.16 1.66 3.52s.68 1.99 1.36 1.95c.61-.04 1.81-1.16 1.55-2.46Zm-62.72-5.52c1.17.02 2.02.95 2.67 3.18.65 2.24 3.74 4.22.13 3.74-3.61-.47-6.24 4.65-7.53 6.54-1.29 1.89-4.76 3.57-4.67 1.72.09-1.85 1.61-2.71 2.04-4.61.43-1.89 4.7-10.63 7.36-10.58Z" style="fill:#444b8c"/><path d="M441.18 439.9c.86-2.38 6.21-18.05-2.44-32.33-7.08-11.69-19.34-15.51-21.08-16.02-10.64-3.14-15.97.89-19.32-2.82-5.69-6.3.76-27.77 13.23-32.07 14.07-4.85 30.94 13.79 37.78 26.03 8.97 16.06 6.76 32.02 6.24 35.31-1.35 8.54-4.48 15.06-6.81 19.06-2.53.95-5.07 1.89-7.6 2.84Z" style="fill:url(#linear-gradient-44)"/><path d="M404.45 353.63c-12.55-.5-22.24-.3-27.71 5.16-5.78 5.77.06 12.29-1.19 27.39-1.92 23.12-16.65 28.77-17.76 52.22-.37 7.9.96 14.36 2 18.25 3.23 4.03 8.53 9.71 16.34 14.46 11.36 6.91 17.96 5.71 34.28 10.18 26.7 7.31 29.07 16.01 42.31 13.79 13.38-2.24 25.12-13.5 23.7-19.68-.85-3.7-6.24-2.65-12.45-8.3-8-7.28-4.92-14.23-11-22.05-8.74-11.23-20.92-4.37-28.36-14.1-7.53-9.85-4.55-29.26 1.81-39.84 4.15-6.91 5.92-15.01 9.45-22.25.29-.6.63-1.59.48-2.82-.57-4.72-8.44-7.28-14.4-9.16-9.09-2.86-16.46-3.21-17.49-3.25Z" style="fill:url(#linear-gradient-45)"/><path d="m393.88 353.11 2.48-.76s.65 3.35 8.61 3.77c4.42 0 7.28-2.48 7.28-2.48l1.69 1.23s-3.71 4.64-9.62 4.52c-7.62-.15-10.44-6.29-10.44-6.29Z" style="fill:url(#linear-gradient-46)"/><path d="M398.92 342.91c.48-3.68 3.39-6.04 4.02-6.55 2.66-2.11 3.2-2.33 4.11-2.5l1.25-.19h.14c.73.04 2.92.9 3.32 1.18 1.27.89.34 7.22-3.52 15.1l-.45 2c3.36.59 4.19 1.2 4.22 1.68.06 1.05-3.62 2.38-7.03 2.47-4.27.11-8.81-1.73-8.72-3.1.04-.56.84-1.24 3.94-1.91.49-.68.97-1.36 1.45-2.05-.44-.53-3.08-3.42-2.73-6.14Z" style="fill:url(#linear-gradient-47)"/><path d="M404.2 341.52c.97-.58 1.71.67 1.25 1.76-.46 1.09-1.99 1.77-2.92 1.12-.93-.65.37-2.1 1.67-2.88Z" style="fill:url(#linear-gradient-48)"/><path d="M406.24 342.33c3.77 7.54-2.05 13.72-1.95 21.53.17 13.65 18.4 30.16 36.65 29.86 12.52-.2 20.96-8.21 30-16.96 6.7-6.48 20.7-20.02 22.44-41.22.58-7.1 1.91-23.35-9.39-33.13-12.73-11.02-35.49-8.65-41.74 1.04-5.4 8.38 4.1 18.23-2.61 27.13-4.43 5.88-14.09 8.9-19.57 6-3.57-1.89-3.27-5.2-7.3-6.78-4.89-1.92-11.72.42-12.52 3.65-.68 2.72 3.61 4.09 6 8.87Z" style="fill:url(#linear-gradient-49)"/><path d="M340.49 313.24c-.32 3.02-1.41 16.38 7.81 27.66 8.61 10.54 20.81 12.65 23.08 12.99 10.97 1.66 15.7-3.07 19.53.15 6.5 5.46 3.05 27.61-8.72 33.58-13.27 6.72-32.53-9.43-40.98-20.62-11.08-14.68-11.08-30.8-11.01-34.12.17-8.65 2.38-15.53 4.14-19.81.72-.22 1.82-.46 3.16-.41 1.28.04 2.32.33 3.01.58Z" style="fill:url(#linear-gradient-50)"/><path d="M453.12 486.24c-3.21-3.29.32-9.93-4.42-14.86-4.4-4.58-9.38-.88-16.47-4.82-9.09-5.05-6.58-14.31-15.26-19.28-6.24-3.58-9.18.27-18.88-1.61-9.69-1.87-21.49-8.55-27.31-20.49-2.48-5.07-3.39-10.11-3.51-14.62-4.36 7.78-8.88 15.24-9.47 27.83-.37 7.9.96 14.36 2 18.25 3.23 4.03 8.53 9.71 16.34 14.46 11.36 6.91 17.96 5.71 34.28 10.18 26.7 7.31 29.07 16.01 42.31 13.79 8.55-1.43 16.41-6.55 20.62-11.67-12.34 5.49-17.89 5.22-20.22 2.83Z" style="fill:url(#linear-gradient-51);opacity:.4;mix-blend-mode:multiply"/></g></g></svg>