<svg id="Layer_1" data-name="Layer 1" xmlns="http://www.w3.org/2000/svg" viewBox="0 0 1080 1080"><defs><linearGradient id="linear-gradient" x1="272.22" y1="27.06" x2="1061.03" y2="171.5" gradientUnits="userSpaceOnUse"><stop offset="0" stop-color="#4a90e2"/><stop offset="1" stop-color="#93ccea"/></linearGradient><style>.cls-1{fill:#2c3e50}</style></defs><path class="cls-1" d="M1053.49 270.23c0 .75 0 1.5-.02 2.25-.17 21.68-3.01 42.71-8.19 62.81a258.33 258.33 0 0 1-26.62 65.06c-44.99 77.8-129.08 130.11-225.41 130.11H622.82V400.35h170.43c23.7 0 45.92-6.33 65.06-17.42a130.42 130.42 0 0 0 47.64-47.64c11.09-19.13 17.42-41.35 17.42-65.06s-6.33-45.92-17.42-65.06a130.42 130.42 0 0 0-47.64-47.64c-19.13-11.09-41.35-17.42-65.06-17.42h130.11c48.17 0 90.21 26.17 112.7 65.06 2.17 3.71 4.13 7.55 5.93 11.49v.02c.86 1.92 1.68 3.85 2.45 5.8.39.98.76 1.96 1.12 2.96.36.98.72 1.98 1.06 2.98v.02c.34 1 .67 2.01.98 3.03.3.94.58 1.9.84 2.85.05.12.08.25.11.36.2.72.41 1.43.59 2.15.14.48.27.98.37 1.47.16.56.28 1.12.42 1.68.11.44.22.89.31 1.34.16.72.33 1.45.47 2.18.06.28.12.58.17.86.19.87.36 1.75.5 2.62.02.05.03.09.03.14.17.9.33 1.82.47 2.76.16.97.3 1.93.42 2.9.14.97.25 1.93.36 2.92.08.64.14 1.28.19 1.92.09.78.16 1.56.22 2.34.17 2.2.3 4.4.36 6.61v.09c.03 1.19.05 2.39.05 3.57Z"/><path d="M1053.44 266.56c-.06-2.21-.19-4.41-.36-6.61-.06-.78-.12-1.56-.22-2.34-.05-.64-.11-1.28-.19-1.92-.11-.97-.22-1.95-.36-2.92-.12-.97-.27-1.93-.42-2.9-.14-.94-.3-1.86-.47-2.76 0-.05-.02-.09-.03-.14-.14-.87-.31-1.75-.5-2.62-.05-.28-.11-.58-.17-.86-.14-.73-.3-1.47-.47-2.18-.09-.45-.2-.9-.31-1.34-.14-.56-.27-1.12-.42-1.68-.11-.48-.25-.98-.37-1.47-.19-.72-.39-1.43-.59-2.15-.03-.11-.06-.23-.11-.36a118.477 118.477 0 0 0-1.82-5.88v-.02c-.34-1-.7-2-1.06-2.98-.36-1-.73-1.98-1.12-2.96-.76-1.95-1.59-3.88-2.45-5.8v-.02c-1.79-3.95-3.76-7.78-5.93-11.49-22.49-38.89-64.53-65.06-112.7-65.06H251.52L381.63 10h411.63c96.32 0 180.42 52.32 225.41 130.11a258.178 258.178 0 0 1 26.62 65.06c.56 2.18 1.11 4.38 1.61 6.6 4.05 17.65 6.28 35.99 6.55 54.8Z" style="fill:url(#linear-gradient)"/><path class="cls-1" d="M821.33 205.17v130.11H556.86V939.9L426.77 1070h-.02V335.28H156.61l-65.06-65.05-65.04-65.06h794.82z"/></svg>