<svg id="Layer_1" data-name="Layer 1" xmlns="http://www.w3.org/2000/svg" viewBox="0 0 166 42"><defs><linearGradient id="linear-gradient" x1="98.02" y1="1.16" x2="128.77" y2="6.79" gradientUnits="userSpaceOnUse"><stop offset="0" stop-color="#4a90e2"/><stop offset="1" stop-color="#93ccea"/></linearGradient><style>.cls-1{fill:#2c3e50}</style></defs><path class="cls-1" d="M33.13 5.44v5.07H22.82v23.57l-5.07 5.07V10.51H7.22L4.69 7.98 2.15 5.44h30.98zm7.39 12.24c.77-.44 1.64-.66 2.63-.66v3.89h-.98c-1.16 0-2.04.27-2.63.82-.59.55-.89 1.5-.89 2.86v7.3l-3.7 3.26V17.23h3.7v2.28c.48-.78 1.1-1.38 1.87-1.83Zm6.65 2.89c.59-1.15 1.39-2.03 2.41-2.65 1.01-.62 2.15-.93 3.4-.93 1.09 0 2.05.22 2.87.66.82.44 1.48 1 1.97 1.67v-2.09h3.73v17.92l-3.73-3.26v-2.14c-.48.69-1.13 1.26-1.97 1.71-.84.45-1.8.67-2.9.67-1.24 0-2.36-.32-3.37-.95-1.01-.64-1.82-1.53-2.41-2.69-.59-1.16-.89-2.48-.89-3.98s.3-2.8.89-3.94Zm10.12 1.68c-.35-.64-.83-1.14-1.43-1.48-.6-.34-1.24-.52-1.93-.52s-1.32.17-1.91.5c-.58.34-1.05.82-1.42 1.47-.36.64-.54 1.41-.54 2.29s.18 1.65.54 2.32c.36.66.84 1.17 1.43 1.52.59.35 1.22.53 1.89.53s1.33-.17 1.93-.52c.6-.34 1.08-.84 1.43-1.48.35-.64.53-1.42.53-2.32s-.18-1.67-.53-2.32Zm21.83-3.57c1.08 1.1 1.61 2.64 1.61 4.62v11.86l-3.7-3.26v-8.1c0-1.16-.29-2.06-.87-2.69-.58-.63-1.38-.94-2.38-.94s-1.83.31-2.42.94c-.59.63-.89 1.52-.89 2.69v8.1l-3.7 3.26V17.24h3.7v1.83c.49-.64 1.12-1.13 1.89-1.5.77-.36 1.61-.54 2.53-.54 1.75 0 3.16.55 4.23 1.65Zm9.1 12.8c-.95-.43-1.71-1.02-2.26-1.76-.56-.74-.86-2.94-.91-3.84l3.73 1.38c.07.56.35 1.03.83 1.4.48.37 1.09.56 1.81.56s1.26-.14 1.65-.42c.4-.28.6-.64.6-1.08 0-.48-.24-.83-.73-1.07-.49-.24-1.26-.5-2.32-.78-1.09-.26-1.99-.54-2.69-.82-.7-.28-1.3-.71-1.8-1.3s-.75-1.37-.75-2.36c0-.81.23-1.55.7-2.22.47-.67 1.14-1.2 2.01-1.59.87-.39 1.9-.58 3.08-.58 1.75 0 3.14.44 4.18 1.31 1.04.87 1.75 3.18 1.85 4.66l-3.68-1.13c-.05-.58-.3-1.05-.73-1.39-.43-.34-1.01-.52-1.73-.52-.67 0-1.19.12-1.55.37-.36.25-.54.59-.54 1.03 0 .49.25.87.74 1.12.49.26 1.26.52 2.3.78 1.06.26 1.93.54 2.62.82.69.28 1.28.72 1.79 1.31.5.59.76 1.37.78 2.34 0 .85-.23 1.61-.7 2.28-.47.67-1.14 1.2-2.01 1.57-.87.38-1.89.57-3.06.57s-2.28-.22-3.23-.65Zm40.25-20.83v.09c0 .84-.12 1.66-.32 2.45-.23.9-.58 1.75-1.04 2.54a10.136 10.136 0 0 1-8.79 5.07h-6.64v-5.07h6.64c.92 0 1.79-.25 2.54-.68a5.074 5.074 0 0 0 2.54-4.4 5.074 5.074 0 0 0-2.54-4.4c-.75-.43-1.61-.68-2.54-.68h5.07a5.048 5.048 0 0 1 4.62 2.99c.03.08.07.15.1.23.02.04.03.08.04.12.01.04.03.08.04.12s.03.08.04.12l.03.11v.01c0 .03.02.06.02.08 0 .02.01.04.01.06 0 .02.01.04.02.07 0 .02 0 .03.01.05 0 .03.01.06.02.09v.03c0 .03.01.07.02.1 0 .04.01.07.02.11 0 .04.01.08.02.11 0 .04 0 .08.01.11v.16c0 .09.01.17.01.26v.14Z"/><path d="M128.47 10.5c0-.09 0-.17-.01-.26v-.16c0-.04 0-.08-.01-.11a.36.36 0 0 0-.02-.11c0-.04-.01-.07-.02-.11 0-.03-.01-.07-.02-.1v-.03c0-.03-.01-.06-.02-.09 0-.02 0-.04-.01-.05 0-.02-.01-.04-.02-.07 0-.02 0-.04-.01-.06 0-.03-.02-.06-.02-.08v-.01l-.03-.11a.564.564 0 0 0-.04-.12s-.03-.08-.04-.12c-.01-.04-.03-.08-.04-.12-.03-.08-.06-.15-.1-.23-.07-.15-.15-.3-.23-.45a5.06 5.06 0 0 0-4.39-2.54H97.25L102.32.5h16.04a10.16 10.16 0 0 1 9.83 7.61l.06.26c.16.69.24 1.4.26 2.14Z" style="fill:url(#linear-gradient)"/><path class="cls-1" d="M109.12 7.79v28.64l-5.07 5.07V7.79h5.07zm21.11 12.78c.59-1.15 1.39-2.03 2.41-2.65 1.01-.62 2.15-.93 3.4-.93 1.09 0 2.05.22 2.87.66.82.44 1.48 1 1.97 1.67v-2.09h3.73v17.92l-3.73-3.26v-2.14c-.48.69-1.13 1.26-1.97 1.71-.84.45-1.8.67-2.9.67-1.24 0-2.36-.32-3.37-.95-1.01-.64-1.82-1.53-2.41-2.69-.59-1.16-.89-2.48-.89-3.98s.3-2.8.89-3.94Zm10.12 1.68c-.35-.64-.83-1.14-1.43-1.48-.6-.34-1.24-.52-1.93-.52s-1.32.17-1.91.5c-.58.34-1.05.82-1.42 1.47-.36.64-.54 1.41-.54 2.29s.18 1.65.54 2.32c.36.66.84 1.17 1.43 1.52.59.35 1.22.53 1.89.53s1.33-.17 1.93-.52c.6-.34 1.08-.84 1.43-1.48.35-.64.53-1.42.53-2.32s-.18-1.67-.53-2.32Zm23.5-5.02-8.59 14.9-4.76 2.41 3.42-6.97-5.8-10.33h4.15l3.7 6.28 3.92-6.28h3.94Z"/></svg>