<svg xmlns="http://www.w3.org/2000/svg" data-name="Layer 1" width="600" height="478" viewBox="0 0 678.281 478"><path fill="#307ed6" d="M383.35 440.048a36.938 36.938 0 0 1-36.938 36.939 36.938 36.938 0 0 1-36.939-36.939 36.938 36.938 0 0 1 73.877 0z"/><path d="M567.084 474.912c20.665-6.206 42.634-12.678 59.023-27.432 14.644-13.184 24.532-33.317 18.464-53.088-6.055-19.732-24.19-32.888-42.914-39.432-10.62-3.712-21.73-5.77-32.837-7.388-12.073-1.759-24.199-3.199-36.32-4.585q-73.617-8.42-147.789-10.288c-24.399-.614-48.793-.599-73.196-.245-21.794.316-44.745.308-64.963-8.954-15.721-7.203-29.99-20.308-34.371-37.528-5.057-19.878 4.27-40.121 17.65-54.518 7.053-7.588 15.296-13.976 23.799-19.849 9.224-6.371 18.77-12.291 28.523-17.817a397.195 397.195 0 0 1 60.038-27.678c10.235-3.722 20.621-6.932 31.099-9.895 8.847-2.501 17.721-5.006 26.271-8.413 16.528-6.588 32.249-17.746 36.452-36.041 3.983-17.338-2.733-36.159-14.506-49.04-13.621-14.901-34.16-21.434-53.85-22.491-22.105-1.187-43.701 4.346-64.479 11.367-22.16 7.489-43.843 16.1-66.471 22.166a447.242 447.242 0 0 1-68.413 12.716c-11.308 1.205-22.958 2.564-34.333 1.642-9.533-.772-19.018-3.577-26.045-10.343-6.025-5.801-9.614-13.775-8.379-22.189.224-1.528 2.546-.878 2.322.641-1.502 10.242 5.46 19.68 14.041 24.515 9.916 5.587 21.982 5.595 33.02 4.956a431.878 431.878 0 0 0 71.078-10.275c22.96-5.244 45.1-12.741 67.215-20.749 21.003-7.605 42.477-15.029 64.915-16.676 19.47-1.429 39.951 1.407 56.912 11.582 14.907 8.942 25.869 23.855 29.362 40.968 3.413 16.723-1.315 33.554-13.972 45.223-13.107 12.083-31.077 17.249-47.825 22.006-21.241 6.034-42.027 13.087-62.146 22.246A390.121 390.121 0 0 0 256 212.892c-17.865 12.207-35.494 27.567-41.144 49.346-2.631 10.144-2.146 20.904 2.258 30.486 3.915 8.52 10.364 15.687 17.876 21.214 17.924 13.189 40.514 15.897 62.165 16.167 24.316.302 48.633-.519 72.957-.119q74.357 1.221 148.41 9.052 18.556 1.964 37.065 4.342c11.098 1.426 22.235 2.843 33.147 5.376 19.403 4.503 38.283 13.163 50.342 29.613a49.24 49.24 0 0 1 9.594 24.448c.845 9.254-1.421 18.525-5.605 26.756-9.26 18.221-26.607 29.811-45.027 37.424-9.867 4.079-20.101 7.168-30.315 10.236-1.488.446-2.124-1.877-.64-2.323Z" fill="#f2f2f2"/><path fill="#f2f2f2" d="M120.365 55.809a19.272 19.272 0 0 1-19.272 19.272 19.272 19.272 0 0 1-19.272-19.272 19.272 19.272 0 0 1 38.544 0zm133.701 36.537a19.272 19.272 0 0 1-19.272 19.272 19.272 19.272 0 0 1-19.272-19.272 19.272 19.272 0 0 1 38.544 0zM367.29 19.272a19.272 19.272 0 0 1-19.272 19.272 19.272 19.272 0 0 1-19.272-19.272 19.272 19.272 0 0 1 38.544 0zm70.665 81.907a19.272 19.272 0 0 1-19.272 19.272 19.272 19.272 0 0 1-19.273-19.272 19.272 19.272 0 0 1 38.545 0zm-95.558 94.755a19.272 19.272 0 0 1-19.272 19.272 19.272 19.272 0 0 1-19.273-19.272 19.272 19.272 0 0 1 38.545 0zm-121.254 45.771a19.272 19.272 0 0 1-19.273 19.273 19.272 19.272 0 0 1-19.272-19.273 19.272 19.272 0 0 1 38.545 0zm128.481 71.468a19.272 19.272 0 0 1-19.272 19.272 19.272 19.272 0 0 1-19.273-19.272 19.272 19.272 0 0 1 38.545 0zm138.117 40.15a19.272 19.272 0 0 1-19.272 19.273 19.272 19.272 0 0 1-19.272-19.273 19.272 19.272 0 0 1 38.544 0zm161.405-8.833a19.272 19.272 0 0 1-19.272 19.273 19.272 19.272 0 0 1-19.273-19.273 19.272 19.272 0 0 1 38.545 0z"/><path d="M342.455 54.607c-57.73.408-104.998 47.321-105.818 105.047-.008.532-.011 4.28-.01 9.182a27.1 27.1 0 0 0 27.096 27.098 27.117 27.117 0 0 0 27.11-27.14l-.004-5.783a51.393 51.393 0 1 1 79.112 43.266l.01.011s-38.567 24.829-50.325 58.889l.01.002a75.486 75.486 0 0 0-3.111 21.495c0 2.991.177 29.166.516 50.411a27.933 27.933 0 0 0 27.937 27.481 27.941 27.941 0 0 0 27.94-28.113 13179.07 13179.07 0 0 1-.182-43.756c0-20.914 20.176-41.752 36.749-55.341 19.084-15.648 32.817-36.973 38.333-61.029a69.671 69.671 0 0 0 2.008-15.123 106.599 106.599 0 0 0-107.37-106.597Z" fill="#307ed6"/><path d="M677.325 478H.956a.956.956 0 0 1 0-1.913h676.369a.956.956 0 0 1 0 1.913Z" fill="#3f3d56"/><path fill="#2f2e41" d="M528.74 195.128a24.09 24.09 0 0 1-24.091 24.09 24.09 24.09 0 0 1-24.09-24.09 24.09 24.09 0 0 1 48.181 0z"/><path fill="#a0616a" d="M460.133 467.454h-9.844l-4.684-37.972h14.531l-.003 37.972Z"/><path d="M443.257 464.641h18.986v11.954h-30.94a11.954 11.954 0 0 1 11.954-11.954Z" fill="#2f2e41"/><path fill="#a0616a" d="M536.419 467.454h-9.844l-4.684-37.972h14.53l-.002 37.972Z"/><path d="M519.543 464.641h18.986v11.954h-30.94a11.954 11.954 0 0 1 11.954-11.954Z" fill="#2f2e41"/><path fill="#a0616a" d="M520.711 199.636a19.723 19.723 0 0 1-19.723 19.723 19.723 19.723 0 0 1-19.722-19.723 19.723 19.723 0 0 1 39.445 0z"/><path d="m512.744 282.985 8.825-20.276a25.201 25.201 0 0 0-5.581-28.587 25.594 25.594 0 0 0-2.465-2.144 24.841 24.841 0 0 0-15.249-5.276 25.84 25.84 0 0 0-10.76 2.393c-.289.128-.57.265-.859.402-.554.265-1.1.554-1.63.851a25.438 25.438 0 0 0-12.607 19.176l-3.895 32.634c-.98 2.562-35.927 95.068-23.705 165.693a3.587 3.587 0 0 0 3.067 2.947l12.39 1.686a3.611 3.611 0 0 0 4.023-2.835l20.79-99.099a2.813 2.813 0 0 1 5.46-.185l29.374 104.214a3.59 3.59 0 0 0 3.461 2.634 4.113 4.113 0 0 0 .699-.064l15.137-2.915a3.59 3.59 0 0 0 2.915-3.862c-2.224-24.805-14.045-149.054-29.39-167.387Z" fill="#2f2e41"/><path d="M424.341 216.049a8.075 8.075 0 0 0 8.507 8.996l11.024 26.494 8.339-12.362-11.748-23.263a8.118 8.118 0 0 0-16.124.136Zm75.554 93.612a8.075 8.075 0 0 0 6.766-10.369l23.196-16.894-13.964-5.23-19.886 16.845a8.118 8.118 0 0 0 3.888 15.648Z" fill="#a0616a"/><path d="M462.083 269.201a13.697 13.697 0 0 1-2.649-.261 13.093 13.093 0 0 1-9.594-7.722l-15.446-18.834a3.614 3.614 0 0 1 .892-5.364l10.989-6.801a3.614 3.614 0 0 1 4.991 1.196l10.886 17.934L483 233.942a7.806 7.806 0 0 1 9.082 12.496l-20.808 18.981a13.051 13.051 0 0 1-9.191 3.782Zm56.331 28.324h-.085a3.62 3.62 0 0 1-2.658-1.261l-9.77-11.398a3.614 3.614 0 0 1 .739-5.358l18.294-12.196-16.573-19.924a7.806 7.806 0 0 1 11.955-9.783l20.142 19.684a13.27 13.27 0 0 1-2.951 21.633l-16.463 17.468a3.619 3.619 0 0 1-2.63 1.135Z" fill="#2f2e41"/><path d="M495.974 255.528a3.72 3.72 0 0 1-.469-.03 3.582 3.582 0 0 1-2.979-2.464l-7.342-22.508a2.476 2.476 0 0 1 1.28-2.991l.238-.112c.216-.103.43-.204.648-.301a26.157 26.157 0 0 1 10.923-2.427 25.156 25.156 0 0 1 13.78 4.141 2.513 2.513 0 0 1 .724 3.448l-13.772 21.575a3.577 3.577 0 0 1-3.033 1.67Z" fill="#e6e6e6"/><path fill="#2f2e41" d="M531.525 176.49a7.883 7.883 0 0 1-7.883 7.883 7.883 7.883 0 0 1-7.883-7.883 7.883 7.883 0 0 1 15.766 0z"/><path d="M496.619 167.825a20.878 20.878 0 0 0-20.878 20.878v8.833h10.865l5.195-8.833 1.559 8.833h32.971l-8.833-8.833a20.878 20.878 0 0 0-20.878-20.878Zm31.075 3.265a12.166 12.166 0 0 1 13.234-8.348c5.024.84 8.996 4.878 11.363 9.388s3.459 9.558 5.051 14.396 3.846 9.704 7.863 12.835 10.18 3.982 14.125.76a16.155 16.155 0 0 1-30.094 5.767c-2.081-3.703-2.619-8.044-3.236-12.247s-1.42-8.552-3.904-11.997-7.137-5.697-11.085-4.127Z" fill="#2f2e41"/><path d="M271.374 183.116a27.1 27.1 0 0 1-27.098-27.098c0-4.901.003-8.648.011-9.182a105.601 105.601 0 0 1 12.333-48.107 105.839 105.839 0 0 0-20.363 60.956c-.008.532-.011 4.28-.011 9.181a27.1 27.1 0 0 0 27.098 27.098 27.12 27.12 0 0 0 26.087-19.746 26.999 26.999 0 0 1-18.057 6.898Zm72.918-71.41a51.396 51.396 0 0 1 44.695 71.799 51.39 51.39 0 1 0-86.264-53.789 51.288 51.288 0 0 1 41.569-18.01Zm8.337 240.042a27.934 27.934 0 0 1-27.937-27.481c-.34-21.244-.516-47.419-.516-50.411a75.486 75.486 0 0 1 3.11-21.495l-.01-.002a76.341 76.341 0 0 1 4.412-10.198 88.369 88.369 0 0 0-12.442 23.046l.01.002a75.486 75.486 0 0 0-3.11 21.495c0 2.992.177 29.167.516 50.411a27.934 27.934 0 0 0 27.937 27.481 27.947 27.947 0 0 0 26.821-20.114 27.832 27.832 0 0 1-18.791 7.266Z" fill="#3f3d56"/><path fill="#ffb8b8" d="M101.613 467.82h9.844l4.684-37.973-14.53.001.002 37.972Z"/><path d="m130.445 476.96-30.941.002v-11.954h18.986a11.954 11.954 0 0 1 11.955 11.953Z" fill="#2f2e41"/><path fill="#ffb8b8" d="M66.281 467.82h9.844l4.684-37.973-14.53.001.002 37.972Z"/><path d="m95.112 476.96-30.941.002v-11.954h18.986a11.954 11.954 0 0 1 11.955 11.953Zm-20.228-20.819-9.616-.506a3.752 3.752 0 0 1-3.548-3.988l11.493-127.249 52.927 14.281 5.099-1.391-15.946 112.65a3.771 3.771 0 0 1-3.5 3.167l-10.366.483a3.753 3.753 0 0 1-3.96-3.851l1.878-67.61a1.251 1.251 0 0 0-2.476-.289l-18.113 71.317a3.731 3.731 0 0 1-3.67 2.992c-.067 0-.135-.002-.203-.006Z" fill="#2f2e41"/><path fill="#ffb8b8" d="M123.104 200.558a19.723 19.723 0 0 1-19.723 19.723 19.723 19.723 0 0 1-19.723-19.723 19.723 19.723 0 0 1 39.446 0z"/><path d="m70.544 258.503 2.168 46.789.784 17.023a3.728 3.728 0 0 0 2.469 3.353l50.859 18.423a3.595 3.595 0 0 0 1.285.225 3.729 3.729 0 0 0 3.744-3.844l-2.085-84.129a29.655 29.655 0 0 0-24.687-28.649c-.492-.075-.993-.15-1.494-.217a29.109 29.109 0 0 0-23.42 7.58 29.901 29.901 0 0 0-9.624 23.445Z" fill="#ccc"/><path d="M151.12 334.755a8.081 8.081 0 0 1-4.311-12.227l-17.247-22.934 14.884-.921 14.096 21.92a8.119 8.119 0 0 1-7.421 14.163Z" fill="#ffb8b8"/><path d="M138.993 318.377a3.729 3.729 0 0 1-2.04-2.022l-25.984-61.908a10.008 10.008 0 1 1 18.456-7.747l25.984 61.909a3.757 3.757 0 0 1-2.008 4.913l-11.536 4.841a3.728 3.728 0 0 1-2.872.014Z" fill="#ccc"/><path d="m97.039 316.194 24.957-47.787a3.917 3.917 0 0 1 5.28-1.657l36.224 18.919a3.917 3.917 0 0 1 1.657 5.28L140.2 338.736a3.917 3.917 0 0 1-5.28 1.657l-36.224-18.919a3.917 3.917 0 0 1-1.657-5.28Z" fill="#3f3d56"/><path d="M113.777 294.362a8.081 8.081 0 0 0-12.46-3.581l-23.912-15.863-.04 14.912 22.713 12.777a8.119 8.119 0 0 0 13.699-8.244Z" fill="#ffb8b8"/><path d="m83.543 297.715-19.542-15.48a13.782 13.782 0 0 1-6.283-21.79l17.744-23.255a8.107 8.107 0 0 1 13.756 8.259l-14.04 22.966L95.81 278.2a3.753 3.753 0 0 1 1.564 5.396l-8.329 13.181a3.76 3.76 0 0 1-2.542 1.695 2.496 2.496 0 0 1-.063.01 3.771 3.771 0 0 1-2.898-.767Z" fill="#ccc"/><path d="M88.478 213.765a1.714 1.714 0 0 1 1.49-2.264 3.959 3.959 0 0 1 2.792 1.377 11.108 11.108 0 0 0 2.465 2.118c.955.482 2.248.413 2.793-.504.511-.861.161-2.014-.149-3.014a29.637 29.637 0 0 1-1.309-7.845c-.089-2.971.329-6.072 1.975-8.391 2.122-2.99 5.918-4.126 9.512-4.044s7.127 1.192 10.686 1.893c1.229.242 2.672.365 3.495-.586.874-1.013.552-2.652.181-4.018-.964-3.548-1.987-7.215-4.228-10.079a15.175 15.175 0 0 0-9.684-5.452 23.237 23.237 0 0 0-10.811 1.227 28.985 28.985 0 0 0-14.2 9.891 23.477 23.477 0 0 0-4.479 17.345 21.414 21.414 0 0 0 7.939 13.535Z" fill="#2f2e41"/><path d="M338.274 467.977a36.934 36.934 0 0 1-13.707-57.406 36.936 36.936 0 1 0 50.243 53.371 36.914 36.914 0 0 1-36.536 4.035Z" fill="#3f3d56"/></svg>