<svg xmlns="http://www.w3.org/2000/svg" data-name="Layer 1" width="600" height="478" viewBox="0 0 532.403 478"><path d="M520.572 435.908c-4.65 16.13-18.226 27.422-32.387 37.013q-2.967 2.01-5.935 3.927c-.013.005-.027.018-.041.024-.095.061-.19.122-.279.184l-1.222.787.222.099s.219.116-.02.019c-.071-.031-.145-.057-.216-.086-8.227-3.319-16.6-6.881-22.905-13.097-6.541-6.456-10.363-16.58-6.821-25.06a16.19 16.19 0 0 1 1.753-3.146c.287-.412.597-.805.918-1.191a17.354 17.354 0 0 1 29.806 5.274c1.04-9.688-6.948-17.802-14.634-23.79-7.691-5.984-16.43-12.501-17.916-22.135-.831-5.36 1.033-10.554 4.429-14.724.105-.127.21-.253.318-.376a25.326 25.326 0 0 1 16.279-8.733c11.792-1.226 23.246 5.017 31.814 13.216 13.788 13.191 22.124 33.454 16.838 51.794Z" fill="#f2f2f2"/><path d="M498.406 414.809a43.054 43.054 0 0 1 5.158 11.376 37.383 37.383 0 0 1 1.292 11.041 47.898 47.898 0 0 1-6.273 21.798 68.936 68.936 0 0 1-10.399 13.896q-2.967 2.01-5.935 3.927c-.013.005-.027.018-.041.024-.095.061-.19.122-.279.184l-1.222.787s.441.216.202.119c-.071-.031-.145-.057-.216-.086a38.106 38.106 0 0 0-12.194-32.811 38.433 38.433 0 0 0-15.779-8.491c.287-.412.597-.805.918-1.191a39.847 39.847 0 0 1 6.578 2.489 39.045 39.045 0 0 1 17.654 17.02 39.919 39.919 0 0 1 4.346 21.905c.338-.306.677-.62 1.005-.929 6.251-5.829 11.804-12.519 15.562-20.24a44.56 44.56 0 0 0 4.666-21.083c-.307-7.964-3.481-15.34-8.074-21.762a93.272 93.272 0 0 0-17.68-18.221 105.985 105.985 0 0 0-21.989-13.575.762.762 0 0 1-.383-.978.648.648 0 0 1 .318-.376.565.565 0 0 1 .49.021c.971.447 1.934.9 2.889 1.372a107.187 107.187 0 0 1 22.146 14.608c6.518 5.558 12.655 11.907 17.241 19.178Z" fill="#fff"/><path d="M43.584 435.749h52.767l26.383-45.697-26.383-45.697H43.584L17.2 390.052Zm0-165.237h52.767l26.383-45.697-26.383-45.697H43.584L17.2 224.815Zm0-163.708h52.767l26.383-45.697L96.351 15.41H43.584L17.2 61.107Z" fill="#f2f2f2"/><path d="M103.039 122.214H36.895a3.836 3.836 0 0 1-3.312-1.912L.51 63.019a3.836 3.836 0 0 1 0-3.825L33.582 1.912A3.836 3.836 0 0 1 36.895 0h66.144a3.836 3.836 0 0 1 3.312 1.912l33.071 57.282a3.836 3.836 0 0 1 0 3.825l-33.071 57.282a3.835 3.835 0 0 1-3.312 1.912ZM36.895 1.53a2.301 2.301 0 0 0-1.988 1.147L1.836 59.959a2.302 2.302 0 0 0 0 2.295l33.071 57.282a2.301 2.301 0 0 0 1.988 1.147h66.143a2.301 2.301 0 0 0 1.987-1.147l33.071-57.282a2.301 2.301 0 0 0 0-2.295l-33.07-57.282a2.301 2.301 0 0 0-1.987-1.147Zm66.144 285.187H36.895a3.836 3.836 0 0 1-3.312-1.912L.51 227.522a3.836 3.836 0 0 1 0-3.825l33.071-57.282a3.836 3.836 0 0 1 3.312-1.912h66.144a3.836 3.836 0 0 1 3.312 1.912l33.071 57.282a3.836 3.836 0 0 1 0 3.825l-33.071 57.282a3.835 3.835 0 0 1-3.312 1.912ZM36.895 166.033a2.301 2.301 0 0 0-1.988 1.147L1.836 224.462a2.302 2.302 0 0 0 0 2.295l33.071 57.282a2.301 2.301 0 0 0 1.988 1.147h66.143a2.301 2.301 0 0 0 1.987-1.147l33.071-57.282a2.301 2.301 0 0 0 0-2.295l-33.071-57.282a2.301 2.301 0 0 0-1.987-1.147Zm66.144 285.187H36.895a3.836 3.836 0 0 1-3.312-1.912L.51 392.025a3.835 3.835 0 0 1 0-3.825l33.071-57.282a3.836 3.836 0 0 1 3.312-1.912h66.144a3.836 3.836 0 0 1 3.312 1.912L139.42 388.2a3.836 3.836 0 0 1 0 3.825l-33.071 57.282a3.835 3.835 0 0 1-3.312 1.912ZM36.895 330.536a2.301 2.301 0 0 0-1.988 1.147L1.836 388.966a2.301 2.301 0 0 0 0 2.295l33.071 57.282a2.301 2.301 0 0 0 1.988 1.147h66.143a2.301 2.301 0 0 0 1.987-1.147l33.071-57.282a2.301 2.301 0 0 0 0-2.295l-33.071-57.282a2.301 2.301 0 0 0-1.987-1.147Z" fill="#ccc"/><path d="M69.967 199.588a25.227 25.227 0 1 0 25.227 25.226 25.227 25.227 0 0 0-25.227-25.226Zm0 7.568a7.568 7.568 0 1 1-7.568 7.568 7.568 7.568 0 0 1 7.568-7.568Zm0 36.433a18.377 18.377 0 0 1-15.136-8.078c.122-5.045 10.09-7.822 15.136-7.822s15.015 2.777 15.136 7.823a18.408 18.408 0 0 1-15.136 8.078Zm-.049-200.055a13.774 13.774 0 1 0-19.936 19.01q.226.237.462.463l19.942 19.942 19.473-19.474a14.105 14.105 0 0 0-19.941-19.941ZM86.211 374.77c0 8.972-16.245 28.667-16.245 28.667s-16.245-19.695-16.245-28.667a16.245 16.245 0 1 1 32.489-.027Z" fill="#307ed6"/><path fill="#fff" d="M76.349 374.77a6.382 6.382 0 0 1-6.382 6.381 6.382 6.382 0 0 1-6.382-6.381 6.382 6.382 0 0 1 12.764 0z"/><path fill="#307ed6" d="M75.768 415.211a6.382 6.382 0 0 1-6.381 6.382 6.382 6.382 0 0 1-6.382-6.382 6.382 6.382 0 0 1 12.763 0z"/><path d="M380.205 177.051c-5.429-2.525-12.094-3.354-17.619-1.007s-9.291 8.363-7.505 13.686c.811 2.414 2.655 4.787 1.936 7.225-.553 1.877-2.482 3.115-4.378 3.996s-3.967 1.622-5.338 3.107-1.656 4.044.056 5.196c.564.379 1.269.559 1.816.959a2.886 2.886 0 0 1 .89 3.23 6.803 6.803 0 0 1-2.18 2.869c-1.944 1.675-4.513 3.594-3.909 5.974a4.191 4.191 0 0 0 2.828 2.645 14.051 14.051 0 0 0 4.152.548l57.348 1.806a21.743 21.743 0 0 0 5.662-.316 6.703 6.703 0 0 0 4.447-2.987c1.098-2.033.377-4.536-.979-6.435s-3.276-3.396-4.862-5.138-2.884-3.919-2.604-6.171c.223-1.804 1.413-3.362 2.267-5.001s1.349-3.686.244-5.194c-1.558-2.124-5.299-1.932-7.071-3.911-1.337-1.493-1.079-3.644-1.212-5.57-.32-4.634-3.527-9.009-8.094-11.041a15.935 15.935 0 0 0-14.5.988Z" fill="#2f2e41"/><path fill="#a0616a" d="m343.965 467.866-8.982-2.699 6.135-35.929 13.256 3.983-10.409 34.645Z"/><path d="m343.641 477.261-28.962-8.702.111-.366a11.77 11.77 0 0 1 14.659-7.886h.001l17.689 5.315Z" fill="#2f2e41"/><path fill="#a0616a" d="M428.724 468.169h-9.379l-4.462-36.175 13.842.001-.001 36.174Z"/><path d="m431.115 477.261-30.24-.002v-.382a11.77 11.77 0 0 1 11.77-11.77h18.471Zm-15.411-36.452a3.442 3.442 0 0 1-3.397-2.899l-13.925-86.868a2.677 2.677 0 0 0-5.117-.604l-36.077 86.855a3.455 3.455 0 0 1-4.269 1.946l-13.031-4.344a3.431 3.431 0 0 1-2.269-4.024l29.566-130.83a3.462 3.462 0 0 1 2.58-2.595l39.651-9.204a3.49 3.49 0 0 1 2.837.589c26.109 18.97 23.904 80.951 19.038 148.253a3.444 3.444 0 0 1-3.285 3.193l-12.15.529a5.089 5.089 0 0 1-.151.003Z" fill="#2f2e41"/><path fill="#a0616a" d="M401.116 208.054a18.789 18.789 0 0 1-18.789 18.789 18.789 18.789 0 0 1-18.789-18.789 18.789 18.789 0 0 1 37.578 0z"/><path d="M383.137 305.435a30.522 30.522 0 0 1-13.022-3.01l-.139-.065-.056-.144-16.853-43.663-.32-7.586a18.186 18.186 0 0 1 19.194-18.926l17.892 1.008a18.197 18.197 0 0 1 17.163 18.061c.465.893 3.765 7.873-2.703 14.432-.242 1.493-2.504 17.019 6.033 25.556l.24.24-.21.267c-.136.173-11.1 13.828-27.219 13.83Z" fill="#ccc"/><path d="M408.262 308.728a7.693 7.693 0 0 0 4.037-11.083l17.869-20.688-14.087-1.834-14.809 19.926a7.734 7.734 0 0 0 6.99 13.678Zm-32.75-4.358a7.693 7.693 0 0 1-7.986-8.681l-24.446-12.234 12.301-7.105 21.329 12.706a7.734 7.734 0 0 1-1.197 15.314Z" fill="#a0616a"/><path d="M419.434 292.761a3.435 3.435 0 0 1-1.888-.567l-8.838-5.796a3.436 3.436 0 0 1-1.071-4.64l6.399-10.749a4.798 4.798 0 0 0-2.16-6.833l-18.381-8.24a10.958 10.958 0 0 1-6.206-12.175 10.893 10.893 0 0 1 15.63-7.462l27.885 14.288a14.67 14.67 0 0 1 5.206 21.642l-13.785 19.102a3.434 3.434 0 0 1-2.791 1.429Zm-57.385 3.392a3.435 3.435 0 0 1-1.469-.33l-21.314-10.03a14.669 14.669 0 0 1-5.932-21.453l17.47-26.01a10.893 10.893 0 0 1 17.289-1.048 10.958 10.958 0 0 1 .47 13.657l-12.087 16.116a4.799 4.799 0 0 0 1.421 7.023l10.805 6.304a3.435 3.435 0 0 1 1.312 4.576l-4.923 9.354a3.435 3.435 0 0 1-3.044 1.841Z" fill="#ccc"/><path d="M363.105 205.383c5.933-.477 10.86-6.404 10.243-12.325a9.953 9.953 0 0 0 8.522 10.132c2.723.3 5.707-.523 8.075.849 2.624 1.522 3.464 5.215 6.197 6.528 2.642 1.269 5.996-.462 7.3-3.086s.985-5.776.12-8.576a24.213 24.213 0 0 0-40.307-9.926c-2.494 2.509-4.475 5.708-4.796 9.233s1.313 7.348 4.478 8.93Z" fill="#2f2e41"/><path d="M531.638 477.904H240.177a.765.765 0 0 1 0-1.53h291.461a.765.765 0 0 1 0 1.53Z" fill="#3f3d56"/></svg>