<svg xmlns="http://www.w3.org/2000/svg" data-name="Layer 1" width="600" height="478" viewBox="0 0 953.531 478"><path d="M314.017 478q-43.158 0-86.187-1.545c-40.988-1.471-83.373-2.994-122.768-24.844-27.558-15.283-51.966-39.804-70.583-70.913a238.604 238.604 0 0 1-27.051-67.82 278.81 278.81 0 0 1 1.016-131.986 234.407 234.407 0 0 1 15.718-43.078c28.729-59.492 81.129-99.427 143.764-109.566a7.258 7.258 0 0 1 1.56-.033c.282.015.563.032.849.019l.369-.117a18.001 18.001 0 0 1 2.9-.744c96.6-14.381 198.72 14.717 295.313 84.144 74.685 53.69 173.664 82.6 302.594 88.385l1.831.096c35.891 2.061 70.608 16.858 100.402 42.792 29.408 25.597 51.488 59.749 63.854 98.764a223.166 223.166 0 0 1 4.141 14.716 27.765 27.765 0 0 1-7.4 26.327v.011l-.322.329a35.367 35.367 0 0 1-2.417 2.191l-.978.806c-8.239 6.788-14.747 12.149-22.536 16.314a69.291 69.291 0 0 1-16.441 6.206 2420.497 2420.497 0 0 1-94.832 21.109c-61.188 12.337-123.99 22.516-186.659 30.25a2419.567 2419.567 0 0 1-296.137 18.186ZM168.754 30.322a3.739 3.739 0 0 0-.576.039C106.13 40.405 54.226 79.948 25.782 138.852a232.051 232.051 0 0 0-15.563 42.652 276.37 276.37 0 0 0-1.002 130.813 236.314 236.314 0 0 0 26.787 67.172c18.435 30.805 42.593 55.079 69.862 70.2 39.041 21.654 81.226 23.169 122.022 24.633a2416.553 2416.553 0 0 0 382.069-16.629c62.629-7.73 125.389-17.9 186.537-30.229a2415.336 2415.336 0 0 0 94.767-21.096 67.558 67.558 0 0 0 16.046-6.054c7.631-4.08 14.077-9.391 22.238-16.114l.978-.804a33.793 33.793 0 0 0 2.088-1.878l.192-.203c6.707-6.759 9.314-15.677 7.155-24.465v-.001a220.568 220.568 0 0 0-4.098-14.56c-25.26-79.701-90.607-136.027-162.606-140.162l-1.82-.096c-58.893-2.642-110.43-9.962-157.546-22.381-56.247-14.824-105.352-37.139-145.95-66.323-96.224-69.163-197.918-98.152-294.095-83.839a16.499 16.499 0 0 0-2.643.686l-.664.186a9.995 9.995 0 0 1-1.132-.014c-.222-.011-.437-.022-.647-.022Z" fill="#f0f0f0"/><path d="M297.844 155.738c-2.664-2.556-5.388-16.807-8.788-18.254 2.541 5.618.696 7.106.682 13.271a41.717 41.717 0 0 1-1.217 10.391h-57.605v-44.957a30.759 30.759 0 0 1 30.759-30.76 18.355 18.355 0 0 1 4.559.667 29.246 29.246 0 0 1 20.633 20.69c4.393 16.052 11.377 42.771 10.976 48.951Z" fill="#2f2e41"/><path d="m234.296 211.044.028-35.042-20.598 1.84 7.269 22.101-3.401 55.55a8.715 8.715 0 1 0 10.546 7.346Zm40.537 250.405 8.321-.001 3.959-32.098H274.83l.003 32.099Z" fill="#ffb6b6"/><path d="m272.014 457.343 13.155-.786v5.636l12.507 8.637a3.521 3.521 0 0 1-2 6.419h-15.662l-2.699-5.576-1.055 5.575h-5.905Z" fill="#2f2e41"/><path fill="#ffb6b6" d="m226.715 461.449 8.323-.001 3.958-32.098h-12.282l.001 32.099Z"/><path d="m223.897 457.343 13.155-.786v5.636l12.508 8.637a3.521 3.521 0 0 1-2.001 6.419h-15.662l-2.7-5.576-1.053 5.575h-5.905Z" fill="#2f2e41"/><path d="m267.422 138.161-17.239.338-12.169 12.846-9.757 1.431a19.477 19.477 0 0 0-16.61 18.017l1.69 9.283h10.14l5.867 34.444c-2.282 5.812-2.436 10.401 2.246 12.203l14.536 27.379 42.929-19.267c2.176-3.743 2.875-7.502.649-11.158l3.069-52.728h10.319c0-9.862-3.335-18.176-13.137-19.273a115.857 115.857 0 0 0-11.717-.67Z" fill="#e6e6e6"/><path d="M289.056 234.835s-41.916 7.436-57.465-8.112c0 0-1.578 2.68-3.956 7.125-.685 1.277-2.006 2.143-2.804 3.692-.725 1.408-2.59 3.137-3.38 4.733-.636 1.284.384 2.961-.277 4.348-7.963 16.702-17.266 40.262-15.271 55.818 1.286 10.034 3.943 33.377 6.741 58.451.219 1.959-1.553 4.475-1.333 6.45.207 1.862 2.404 3.181 2.612 5.048.138 1.239-1.397 2.503-1.26 3.741.15 1.357 1.973 2.689 2.122 4.041 3.833 34.62 7.342 66.943 7.342 66.943h19.606l3.699-73.822-3.023-26.909 7.098-54.421 9.802 51.717 1.261 29.107 10.359 75.68h18.126v-73.263l1.352-3.807-1.352-4.88 1.352-5.259-1.352-5.728Z" fill="#2f2e41"/><path d="M272.714 128.164a19.541 19.541 0 1 1 3.385-16.33c.055.235.103.467.149.709a19.514 19.514 0 0 1-3.535 15.621Z" fill="#ffb6b6"/><path d="M268.639 117.015a10.272 10.272 0 0 0-3.002-5.442 14.013 14.013 0 0 1-.81 5.875 27.078 27.078 0 0 1-14.88-2.948c-3.447-2.339-7.835-2.137-12.946 0a18.927 18.927 0 0 1 18.929-18.929h3.38a18.933 18.933 0 0 1 18.929 18.929 56.356 56.356 0 0 1-9.6 2.514Z" fill="#2f2e41"/><path fill="#f0f0f0" d="M175.138 303.893a54.381 54.381 0 0 1-54.381 54.381 54.381 54.381 0 0 1-54.381-54.381 54.381 54.381 0 0 1 108.762 0zM521.683 54.381a54.381 54.381 0 0 1-54.381 54.381 54.381 54.381 0 0 1-54.381-54.381 54.381 54.381 0 0 1 108.762 0zm431.848 258.043a54.381 54.381 0 0 1-54.381 54.381 54.381 54.381 0 0 1-54.381-54.381 54.381 54.381 0 0 1 108.762 0z"/><path d="M565.402 60.312v123.312a9.724 9.724 0 0 1-9.622 9.725.855.855 0 0 1-.107.003h-14.352a43.298 43.298 0 0 1-43.299-43.298V60.312a9.728 9.728 0 0 1 9.729-9.729h5.816c-2.695 7.86 33.871 11.168 35.879 0h6.227a9.728 9.728 0 0 1 9.729 9.729Z" fill="#307ed6"/><path d="M522.81 41.361a1.276 1.276 0 0 1 1.275-1.274h8.669a1.275 1.275 0 0 1 0 2.55h-8.669a1.276 1.276 0 0 1-1.275-1.274Z" fill="#3f3d56"/><path d="M558.651 208.993h-54.824a16.062 16.062 0 0 1-16.043-16.043v-86.2a2.332 2.332 0 0 1-.972-1.897v-8.669a2.331 2.331 0 0 1 .972-1.897V91.96a2.331 2.331 0 0 1-.972-1.896v-8.67a2.331 2.331 0 0 1 .972-1.896v-4.205a2.329 2.329 0 0 1-1.226-2.058v-8.669a2.329 2.329 0 0 1 1.226-2.058V50.985a16.062 16.062 0 0 1 16.043-16.043h54.824a16.062 16.062 0 0 1 16.043 16.043v25.118a2.011 2.011 0 0 1 .945 1.704v16.531a2.012 2.012 0 0 1-.945 1.705v96.908a16.062 16.062 0 0 1-16.043 16.042ZM503.826 37.075a13.927 13.927 0 0 0-13.911 13.91v13.337l-1.026.039a.208.208 0 0 0-.202.205v8.669a.209.209 0 0 0 .202.205l1.026.039v7.516l-.811.199a.21.21 0 0 0-.16.199v8.669a.21.21 0 0 0 .16.199l.81.2v5.321l-.81.2a.21.21 0 0 0-.16.199v8.669a.21.21 0 0 0 .16.199l.81.199v87.698a13.927 13.927 0 0 0 13.913 13.915h54.824a13.926 13.926 0 0 0 13.911-13.911V94.215h.945V77.929h-.945V50.984a13.926 13.926 0 0 0-13.911-13.91Z" fill="#3f3d56"/><path fill="#3f3d56" d="M538.874 41.362a1.275 1.275 0 0 1-1.275 1.275 1.275 1.275 0 0 1-1.275-1.275 1.275 1.275 0 0 1 2.55 0z"/><path d="M260.261 288.329H117.605a7.665 7.665 0 0 1-7.645-7.645v-69.509a7.665 7.665 0 0 1 7.644-7.645H260.26a7.665 7.665 0 0 1 7.645 7.644v69.511a7.665 7.665 0 0 1-7.644 7.645Z" fill="#fff"/><path d="M260.261 288.329H117.605a7.665 7.665 0 0 1-7.645-7.645v-69.509a7.665 7.665 0 0 1 7.644-7.645H260.26a7.665 7.665 0 0 1 7.645 7.644v69.511a7.665 7.665 0 0 1-7.644 7.645Zm-142.656-82.668a5.529 5.529 0 0 0-5.513 5.513v69.509a5.529 5.529 0 0 0 5.514 5.513h142.653a5.529 5.529 0 0 0 5.514-5.514v-69.508a5.529 5.529 0 0 0-5.513-5.513Z" fill="#3f3d56"/><path d="M196.578 278.056c-28.135 0-57.472-.269-68.418-.444a5.519 5.519 0 0 1-5.406-5.497v-57.539a1.951 1.951 0 0 1 1.944-1.948h128.463a1.951 1.951 0 0 1 1.948 1.944v39.039a24.356 24.356 0 0 1-23.946 24.26c-10.201.132-22.281.184-34.585.184Z" fill="#307ed6"/><path d="M245.535 250.024H129.461a4.732 4.732 0 0 1-4.44-3.131l-13.138-36.857a4.716 4.716 0 0 1 4.434-6.299l145.093-.203a4.716 4.716 0 0 1 4.649 5.544l.111.047-.416.972-.004.01-15.886 37.06a4.702 4.702 0 0 1-4.329 2.858Zm15.879-44.356-145.096.203a2.584 2.584 0 0 0-2.428 3.449l13.137 36.856a2.594 2.594 0 0 0 2.434 1.715h116.074a2.573 2.573 0 0 0 2.368-1.564l15.883-37.06.781.335-.781-.335a2.581 2.581 0 0 0-2.374-3.599Z" fill="#3f3d56"/><path fill="#fff" d="M197.805 248.958a9.089 9.089 0 0 1-9.089 9.089 9.089 9.089 0 0 1-9.089-9.089 9.089 9.089 0 0 1 18.178 0zm343.346-78.905a9.089 9.089 0 0 1-9.089 9.089 9.089 9.089 0 0 1-9.089-9.089 9.089 9.089 0 0 1 18.178 0z"/><path d="m875.831 301.889-24.279-23.97a12.672 12.672 0 0 0-8.989-3.689h-.085a12.704 12.704 0 0 0-9.021 3.796 29.847 29.847 0 0 0-.522 41.415c.256.277.522.544.789.81a29.054 29.054 0 0 0 4.862 3.892 29.511 29.511 0 0 0 16.112 4.724h.181a29.671 29.671 0 0 0 21.059-8.872 12.82 12.82 0 0 0-.107-18.106Zm-1.408 16.602a27.822 27.822 0 0 1-34.932 3.711 28.562 28.562 0 0 1-4.276-3.465 27.726 27.726 0 0 1-.245-39.208 10.57 10.57 0 0 1 7.528-3.167h.064a10.568 10.568 0 0 1 7.485 3.071l24.279 23.981a10.67 10.67 0 0 1 .096 15.077Zm-78.254-95.273-24.279-23.981a12.717 12.717 0 0 0-8.989-3.689h-.075a12.739 12.739 0 0 0-9.031 3.807 29.938 29.938 0 0 0-5.033 35.188l.011.011a29.389 29.389 0 0 0 4.617 6.323c.203.235.437.469.672.704a29.68 29.68 0 0 0 20.974 8.616h.192a29.701 29.701 0 0 0 21.059-8.882 12.794 12.794 0 0 0-.117-18.095Zm-1.408 16.602a27.569 27.569 0 0 1-19.545 8.242h-.181a27.724 27.724 0 0 1-19.716-47.205 10.671 10.671 0 0 1 15.077-.096l24.279 23.97a10.684 10.684 0 0 1 .085 15.088Z" fill="#3f3d56"/><path d="m877.382 309.425-26.767-26.438a9.306 9.306 0 0 0-13.144.082 23.458 23.458 0 1 0 33.38 32.969Zm-79.658-78.675-26.767-26.438a9.306 9.306 0 0 0-13.145.081 23.458 23.458 0 1 0 33.38 32.97Z" fill="#307ed6"/><path d="m847.969 325.891-.64 1.685q-4.51-1.711-8.744-3.433c-49.988-20.398-73.851-44.272-89.814-89.59l-.011-.011q-1.137-3.199-2.207-6.547l1.685-.544a27.235 27.235 0 0 0 2.452 6.163q1.312 3.727 2.698 7.261c15.003 38.248 37.128 60.107 79.545 78.564q3.199 1.392 6.558 2.762a27.816 27.816 0 0 0 8.477 3.689Zm-62.78-113.231 1.499-1.517 55.38 54.698-1.499 1.518-55.38-54.699z" fill="#3f3d56"/><path d="m302.576 202.931.028-35.042-20.598 1.84 7.269 22.101-26.388 40.001a8.715 8.715 0 1 0 10.546 7.345Z" fill="#ffb6b6"/></svg>