<svg xmlns="http://www.w3.org/2000/svg" data-name="Layer 1" width="755.996" height="502" viewBox="0 0 755.996 502"><path d="M382.981 141.092c-6.741-11.148-14.728-23.053-27.238-26.693-14.486-4.215-29.367 4.159-41.99 12.424a1223.61 1223.61 0 0 0-108.893 80.231l.038.433 81.258-5.604c19.569-1.349 39.812-2.886 57.106-12.143 6.563-3.512 12.96-8.205 20.396-8.532 9.238-.407 17.295 6.046 23.626 12.788 37.449 39.877 48.286 100.861 90.3 135.897a1333.334 1333.334 0 0 0-94.602-188.801Z" fill="#f2f2f2"/><path d="M613.174 479.33c-4.141-5.23-5.833-6.454-9.918-11.731q-49.893-64.528-93.789-133.416-29.817-46.786-56.676-95.368-12.788-23.097-24.874-46.556-9.378-18.189-18.338-36.597a740.046 740.046 0 0 1-5.02-10.555c-3.892-8.299-7.712-16.638-11.813-24.825-4.673-9.331-10.362-19.112-18.943-25.381a25.845 25.845 0 0 0-13.464-5.181c-6.986-.451-13.432 2.434-19.491 5.584-44.332 23.117-85.836 52.1-123.376 85.079a642.304 642.304 0 0 0-100.231 111.264c-.887 1.266-2.982.056-2.087-1.216q5.282-7.469 10.773-14.777a645.854 645.854 0 0 1 164.887-153.801q16.039-10.393 32.68-19.813c5.592-3.167 11.208-6.293 16.92-9.226 5.601-2.876 11.547-5.463 17.944-5.559 21.771-.338 33.043 24.317 40.787 40.907q3.65 7.832 7.388 15.616 14.129 29.55 29.346 58.561 9.391 17.912 19.193 35.614 30.505 55.124 64.846 108.017c30.328 46.709 60.415 87.971 94.965 131.651.951 1.209-.749 2.933-1.709 1.708ZM215.322 168.208c-1.266-1.41-2.523-2.82-3.795-4.23-10.039-11.103-20.812-22.077-34.598-28.442a50.196 50.196 0 0 0-21.03-4.875c-7.525.025-14.882 1.999-21.835 4.762-3.287 1.313-6.503 2.804-9.669 4.391-3.618 1.821-7.172 3.763-10.708 5.722q-9.96 5.511-19.661 11.505-19.301 11.929-37.394 25.679-9.379 7.131-18.371 14.729-8.364 7.058-16.389 14.495c-1.144 1.056-2.852-.652-1.709-1.708a387.833 387.833 0 0 1 4.263-3.908q6.043-5.463 12.28-10.717 11.373-9.596 23.335-18.451 18.6-13.778 38.481-25.688 9.935-5.946 20.144-11.393a174.674 174.674 0 0 1 6.236-3.183 99.421 99.421 0 0 1 14.826-6.036 52.741 52.741 0 0 1 22.392-2.199 58.297 58.297 0 0 1 20.659 7.147c13.536 7.566 24.035 19.266 34.252 30.683 1.032 1.16-.668 2.876-1.708 1.716Z" fill="#e4e4e4"/><path d="m492.678 283.266 32.437-11.864 16.105-5.891c5.245-1.919 10.478-4.102 15.9-5.476a25.084 25.084 0 0 1 14.392.183 33.169 33.169 0 0 1 11.224 6.958 91.092 91.092 0 0 1 9.207 9.832c3.507 4.214 6.961 8.473 10.431 12.715q21.483 26.272 42.684 52.773 21.201 26.5 42.118 53.225 20.969 26.79 41.649 53.805 2.533 3.309 5.063 6.622c.931 1.22 3.031.018 2.087-1.22q-20.832-27.286-41.956-54.349-21.175-27.127-42.642-54.024-21.468-26.896-43.225-53.559-5.42-6.643-10.858-13.271c-3.059-3.727-6.082-7.495-9.437-10.964-6.157-6.368-13.849-11.996-23.058-12.149-5.414-.09-10.654 1.629-15.684 3.448-5.423 1.962-10.833 3.96-16.248 5.942l-32.664 11.946-8.165 2.987c-1.45.53-.824 2.867.642 2.331Z" fill="#e4e4e4"/><path d="M172.66 149.506c-16.483-8.472-37.593-6.812-52.74 3.771a752.231 752.231 0 0 1 85.582 19.975c-11.674-6.842-20.806-17.561-32.841-23.746Zm-52.903 3.742-3.173 2.58a46.974 46.974 0 0 1 3.336-2.551l-.163-.029Zm461.757 130.137c-3.193-3.887-6.645-7.956-11.421-9.536l-4.459.176a505.769 505.769 0 0 0 134.711 154.007L581.513 283.385Zm-277.272-32.063a32.943 32.943 0 0 0 13.122 18.422c2.479 1.688 5.412 3.306 6.26 6.182a7.365 7.365 0 0 1-.767 5.405 21.871 21.871 0 0 1-3.394 4.431l-.12.45c-6.152-3.645-12.004-8.256-15.402-14.547s-3.872-14.537.301-20.344m204.791 178.423a32.943 32.943 0 0 0 13.122 18.422c2.479 1.688 5.412 3.306 6.26 6.182a7.365 7.365 0 0 1-.767 5.405 21.871 21.871 0 0 1-3.394 4.431l-.12.45c-6.152-3.645-12.004-8.256-15.402-14.547s-3.872-14.537.301-20.344M100.33 417.438a32.943 32.943 0 0 0 13.122 18.422c2.479 1.688 5.412 3.306 6.26 6.182a7.365 7.365 0 0 1-.767 5.405 21.871 21.871 0 0 1-3.394 4.431l-.12.45c-6.152-3.645-12.004-8.256-15.402-14.547s-3.872-14.537.301-20.344" fill="#f2f2f2"/><path fill="#307ed6" d="M615.471 44.825a44.825 44.825 0 0 1-44.826 44.826 44.825 44.825 0 0 1-44.825-44.826 44.825 44.825 0 0 1 89.651 0z"/><path d="M651.538 10.433c-21.725-2.936-46.526 8.807-52.157 29.993a18.982 18.982 0 0 0-36.119 1.854l2.487 1.781a327.204 327.204 0 0 0 141.208-.638c-15.111-15.883-33.696-30.054-55.419-32.99ZM558.371 70.2c-21.725-2.936-46.526 8.807-52.157 29.993a18.982 18.982 0 0 0-36.119 1.854l2.487 1.781a327.204 327.204 0 0 0 141.208-.638c-15.11-15.882-33.695-30.054-55.419-32.99Z" fill="#f0f0f0"/><path d="M747.98 81.502a.863.863 0 0 1-.265-.041C515.32 7.966 310.496 17.577 179.592 38.581a1137.352 1137.352 0 0 0-53.09 9.81 1051.418 1051.418 0 0 0-13.709 2.969 899.238 899.238 0 0 0-16.288 3.785q-3.404.806-6.675 1.625a854.506 854.506 0 0 0-10.248 2.599 817.558 817.558 0 0 0-12.127 3.227.388.388 0 0 1-.045.013v.001a814.209 814.209 0 0 0-13.468 3.801 532.526 532.526 0 0 0-6.856 2.028c-.244.068-.461.133-.682.2l-.471.144a56.7 56.7 0 0 1-.812.242l-.018.005h.001l-.713.222c-.851.258-1.681.509-2.497.759C20.32 76.66 8.461 81.393 8.344 81.438a.879.879 0 1 1-.654-1.631c.118-.047 12.035-4.802 33.687-11.477a717.22 717.22 0 0 1 2.505-.761l.663-.207c.023-.009.045-.015.069-.022.268-.076.536-.158.809-.24l.471-.144c.236-.07.468-.141.705-.207a521.909 521.909 0 0 1 6.853-2.028 819.37 819.37 0 0 1 13.478-3.804.41.41 0 0 1 .044-.012v-.001a827.407 827.407 0 0 1 12.168-3.239 873.452 873.452 0 0 1 10.266-2.603q3.285-.817 6.689-1.628a901.793 901.793 0 0 1 16.316-3.791 1067.151 1067.151 0 0 1 13.731-2.973 1138.589 1138.589 0 0 1 53.173-9.825C310.409 15.81 515.526 6.184 748.248 79.784a.879.879 0 0 1-.264 1.717Z" fill="#ccc"/><path d="M231.149 369.01a5.915 5.915 0 0 0-1.494-2.347 5.652 5.652 0 0 0-.809-.624c-2.294-1.529-5.722-1.872-7.902 0a5.107 5.107 0 0 0-.606.624q-.976 1.2-2.004 2.347a77.545 77.545 0 0 1-3.481 3.727c-.343.334-.686.677-1.037 1.011-.202.202-.404.396-.606.589a77.362 77.362 0 0 1-2.364 2.153c-.422.378-.844.747-1.274 1.107-.642.536-1.283 1.072-1.934 1.591a2.52 2.52 0 0 0-.185.141c-.018.009-.026.026-.044.035-.009 0-.018 0-.026.018a.157.157 0 0 0-.062.044c-.193.132-.325.22-.422.299.035-.018.07-.044.105-.062-.158.123-.325.246-.483.369a81.611 81.611 0 0 1-4.72 3.243 87.199 87.199 0 0 1-12.498 6.636c-.29.114-.589.237-.888.352a75.562 75.562 0 0 1-35.904 5.291q-1.872-.145-3.744-.396a78.629 78.629 0 0 1-4.298-.756 86.075 86.075 0 0 1-15.838-4.781 104.287 104.287 0 0 1-18.159-10.653 188.745 188.745 0 0 0-2.654-1.855 454.944 454.944 0 0 0 2.971-7.453c.483-1.204.949-2.408 1.406-3.621 3.595-9.343 6.97-18.774 10.204-28.24q4.904-14.384 9.255-28.934.448-1.477.87-2.953 2.281-7.686 4.377-15.408c.132-.501.272-.993.396-1.494q.606-2.215 1.187-4.43c.879-3.331-1.107-7.313-4.606-8.113a6.71 6.71 0 0 0-8.104 4.606 746.952 746.952 0 0 1-1.143 4.263q-2.782 10.323-5.854 20.576l-.897 2.953q-6.777 22.334-14.88 44.219-.976 2.65-1.978 5.282c-.325.861-.65 1.723-.984 2.584a624.885 624.885 0 0 1-1.96 5.089c-.378.993-.765 1.986-1.151 2.971-.255.624-.501 1.248-.747 1.863a36.748 36.748 0 0 0-7.743-1.863l-.422-.053a24.08 24.08 0 0 0-6.161.053 21.019 21.019 0 0 0-15.153 9.369c-4.193 6.601-4.14 16.04 1.74 21.648 6.056 5.775 15.223 5.731 22.351 2.118a24.919 24.919 0 0 0 9.246-8.666 44.448 44.448 0 0 0 2.408-4.087c.185.123.369.246.554.378.703.492 1.406.993 2.101 1.485a98.21 98.21 0 0 0 12.753 7.831 95.24 95.24 0 0 0 30.429 9.202c.237.026.466.062.703.088 1.169.149 2.347.264 3.525.36a91.217 91.217 0 0 0 48.851-9.985q1.912-.989 3.788-2.074 2.914-1.688 5.695-3.586a79.993 79.993 0 0 0 2.971-2.109 88.809 88.809 0 0 0 11.874-10.503q2.07-2.175 3.964-4.491a7.085 7.085 0 0 0 1.934-4.658 6.648 6.648 0 0 0-.439-2.32ZM85.607 389.946c.185-.132.369-.272.545-.413-.053.132-.308.281-.545.413Zm2.821-2.839c-.202.229-.387.457-.589.686a20.537 20.537 0 0 1-1.978 1.934 4.208 4.208 0 0 1-.308.255.009.009 0 0 0-.009.009 3.343 3.343 0 0 0-.369.193q-.567.343-1.16.633a14.946 14.946 0 0 1-2.382.659 14.766 14.766 0 0 1-1.872.018h-.018a13.028 13.028 0 0 1-1.274-.352c-.211-.105-.413-.229-.615-.352-.079-.07-.149-.141-.193-.185a2.145 2.145 0 0 1-.237-.255.009.009 0 0 0-.009-.009c-.097-.176-.202-.352-.299-.527a.027.027 0 0 1-.009-.018 8.75 8.75 0 0 1-.185-.677 10.995 10.995 0 0 1 .009-1.204 11.837 11.837 0 0 1 .475-1.652 9.728 9.728 0 0 1 .606-1.107c.018-.035.105-.176.202-.334.009-.009.009-.009.009-.018.132-.149.264-.308.404-.448.237-.264.492-.492.747-.73a15.84 15.84 0 0 1 1.538-.888 17.122 17.122 0 0 1 2.575-.694 21.964 21.964 0 0 1 3.876.035 26.632 26.632 0 0 1 3.604.888 32.472 32.472 0 0 1-2.435 3.99c-.035.053-.07.105-.105.149Zm-9.774-2.892a1.916 1.916 0 0 1-.272.343 1.238 1.238 0 0 1 .272-.343Z" fill="#3f3d56"/><path d="m204.729 279.245-.237 8.28q-.25 9.189-.519 18.387-.277 10.349-.58 20.69-.145 5.34-.299 10.679-.409 14.384-.809 28.759c-.026.993-.062 1.978-.088 2.971l-.396 14.265q-.224 7.739-.439 15.478-.158 5.801-.325 11.611l-2.373 84.193a6.722 6.722 0 0 1-6.592 6.592 6.646 6.646 0 0 1-6.592-6.592q.659-23.678 1.336-47.357.593-21.411 1.204-42.822l.396-14.116q.303-10.626.598-21.253c.026-.993.062-1.978.088-2.971.018-.87.044-1.731.07-2.602l1.16-41.275q.237-8.121.457-16.251l.527-18.528c.079-2.716.149-5.423.229-8.139a6.722 6.722 0 0 1 6.592-6.592 6.646 6.646 0 0 1 6.592 6.592Zm361.617 1.829a785.095 785.095 0 0 1-24.752 77.294c-2.643 6.985-5.347 13.955-8.237 20.841l.664-1.574a47.975 47.975 0 0 1-4.913 9.327q-.201.281-.41.559 1.025-1.31.389-.518c-.223.264-.444.529-.675.787a20.799 20.799 0 0 1-1.977 1.937q-.265.226-.538.443l.824-.642c-.096.227-.767.526-.976.654a16.044 16.044 0 0 1-2.114 1.071l1.574-.664a16.775 16.775 0 0 1-3.718 1.02l1.752-.235a14.959 14.959 0 0 1-3.778.04l1.753.236a12.307 12.307 0 0 1-2.993-.806l1.574.664a10.558 10.558 0 0 1-1.475-.788c-.239-.156-.972-.711-.013.021.996.761.127.066-.077-.136-.171-.169-.325-.352-.492-.523-.775-.795.876 1.368.349.438a15.981 15.981 0 0 1-.772-1.439l.664 1.575a10.481 10.481 0 0 1-.64-2.33l.236 1.752a11.998 11.998 0 0 1-.003-2.992l-.236 1.752a14.031 14.031 0 0 1 .875-3.234l-.664 1.575a14.705 14.705 0 0 1 1.035-2.021 5.915 5.915 0 0 1 .64-.941c.044.014-1.114 1.33-.501.665.162-.174.312-.357.475-.529.26-.276.539-.527.813-.789.918-.874-1.284.849-.225.158a16.743 16.743 0 0 1 2.417-1.318l-1.575.664a17.852 17.852 0 0 1 4.39-1.178l-1.753.236a22.525 22.525 0 0 1 5.678.067l-1.752-.235a29.189 29.189 0 0 1 6.937 1.951l-1.575-.665c4.737 2.034 8.933 5.054 13.121 8.014a98.396 98.396 0 0 0 12.75 7.829 95.266 95.266 0 0 0 30.43 9.206 91.35 91.35 0 0 0 81.377-32.302 7.1 7.1 0 0 0 1.931-4.662 6.708 6.708 0 0 0-1.931-4.661c-2.419-2.22-6.988-2.847-9.323 0a84.057 84.057 0 0 1-7.125 7.67q-1.774 1.682-3.641 3.261-1.066.902-2.162 1.768c-.346.272-1.424 1 .231-.173-.38.269-.743.563-1.116.839a87.251 87.251 0 0 1-17.871 10.165l1.575-.664a85.112 85.112 0 0 1-21.246 5.821l1.753-.236a85.821 85.821 0 0 1-22.635-.033l1.752.236a87.717 87.717 0 0 1-21.848-5.95l1.575.664a101.978 101.978 0 0 1-19.104-11.066 76.359 76.359 0 0 0-9.768-6.148 37.639 37.639 0 0 0-12.69-3.857c-8.297-.976-16.75 2.254-21.311 9.422-4.197 6.596-4.143 16.035 1.735 21.644 6.054 5.777 15.222 5.728 22.356 2.115 6.871-3.481 10.998-10.711 13.9-17.528 6.53-15.342 12.314-31.039 17.702-46.815q7.995-23.412 14.501-47.298.806-2.958 1.588-5.924c.88-3.329-1.108-7.313-4.604-8.108a6.709 6.709 0 0 0-8.109 4.604Z" fill="#3f3d56"/><path d="m632.119 279.245-2.373 84.195-2.361 83.757-1.334 47.359a6.649 6.649 0 0 0 6.592 6.592 6.724 6.724 0 0 0 6.592-6.592l2.373-84.195 2.36-83.757 1.334-47.359a6.649 6.649 0 0 0-6.592-6.592 6.724 6.724 0 0 0-6.592 6.592Z" fill="#3f3d56"/><path d="M403.949 471.05h2.048v-93.204h47.751v-2.041h-47.752v-39.328h36.876q-.811-1.031-1.669-2.036h-35.207v-25.975a57.463 57.463 0 0 0-2.047-.829v26.804h-40.124V301.16c-.687.032-1.364.079-2.047.136v33.144h-32.011v-24.83a48.016 48.016 0 0 0-2.036.96v23.87h-26.908v2.036h26.908v39.327h-26.908v2.042h26.908v93.204h2.036v-93.203a32.005 32.005 0 0 1 32.011 32.011v61.193h2.048v-93.204h40.124Zm-74.182-95.245v-39.327h32.011v39.328Zm34.057 0v-39.327h.803a39.324 39.324 0 0 1 39.322 39.328Z" opacity=".2"/><path d="M391.449 443.104a55.425 55.425 0 0 1-17.623 29.62 59.198 59.198 0 0 1-1.978 1.644q-2.465.224-4.896.457c-1.345.123-2.672.255-3.99.378l-.237.026-.167-1.441-.668-5.836a33.068 33.068 0 0 1-2.9-28.513c2.32-6.258 6.522-11.786 10.653-17.271 5.704-7.576 11.25-15.065 11.452-24.302a53.214 53.214 0 0 1 6.944 11.716 14.443 14.443 0 0 0-4.5 3.314c-.36.396-.721.949-.475 1.424.211.404.738.501 1.195.554l3.305.343c.879.097 1.758.185 2.637.281a56.243 56.243 0 0 1 2.153 10.705 53.781 53.781 0 0 1-.905 16.902Z" fill="#3f3d56"/><path d="M420.629 420.068c-5.186 3.771-8.218 9.194-10.574 15.17a14.615 14.615 0 0 0-6.302 4.026c-.36.396-.721.949-.475 1.424.211.404.738.501 1.195.554l3.305.343c-2.356 7.067-4.518 14.379-8.684 20.347a32.512 32.512 0 0 1-10.574 9.589 33.832 33.832 0 0 1-3.533 1.749q-6.697.514-13.14 1.099-2.465.224-4.896.457c-1.345.123-2.672.255-3.99.378q-.013-.725 0-1.45a55.64 55.64 0 0 1 13.404-35.034 61.2 61.2 0 0 1 1.213-1.354 54.311 54.311 0 0 1 14.775-11.162 55.069 55.069 0 0 1 28.275-6.135Z" fill="#307ed6"/><path d="m368.473 470.316-1.011 2.988-.51 1.521c-1.345.123-2.672.255-3.99.378l-.237.026-4.359.448a55.546 55.546 0 0 1-1.125-1.345 54.52 54.52 0 0 1 7.093-76.564c-1.16 6.073.193 11.892 2.417 17.667a12.41 12.41 0 0 0-.686.299 14.443 14.443 0 0 0-4.5 3.314c-.36.396-.721.949-.475 1.424.211.404.738.501 1.195.554l3.305.343c.879.097 1.758.185 2.637.281l1.239.132c.062.132.114.255.176.387 2.505 5.432 5.203 10.89 6.724 16.55a38.379 38.379 0 0 1 .897 4.316 33.051 33.051 0 0 1-8.789 27.282Z" fill="#307ed6"/><path d="M456.945 342.836c-7.567-14.759-19.289-27.177-33.076-36.302a100.406 100.406 0 0 0-46.199-16.155q-3.243-.294-6.503-.345c-2.567-.038-41.192 11.103-54.131 20.2a100.457 100.457 0 0 0-31.055 34.742 90.09 90.09 0 0 0-10.658 45.383 99.815 99.815 0 0 0 12.923 45.244 97.1 97.1 0 0 0 32.032 34.054c13.481 8.602 27.023 31.409 42.94 32.215 16.037.811 34.326-20.703 48.952-27.235a91.782 91.782 0 0 0 36.673-29.888 96.902 96.902 0 0 0 17.227-43.022c2.261-15.894 1.208-32.286-4.221-47.476a98.317 98.317 0 0 0-4.904-11.411c-1.564-3.082-6.149-4.215-9.019-2.365a6.75 6.75 0 0 0-2.365 9.019q1.378 2.714 2.562 5.518l-.664-1.575a88.904 88.904 0 0 1 6.044 22.447l-.236-1.753a96.005 96.005 0 0 1-.058 25.21l.235-1.753a96.449 96.449 0 0 1-6.639 24.324l.664-1.575a91.595 91.595 0 0 1-5.864 11.512q-1.69 2.8-3.586 5.469c-.555.78-1.128 1.548-1.705 2.312-.751.998 1.027-1.303.249-.325l-.397.501q-.599.749-1.215 1.484a82.279 82.279 0 0 1-8.944 9.126q-1.201 1.049-2.442 2.049c-.412.333-.819.679-1.248.989.016-.011 1.388-1.055.576-.448-.255.19-.509.382-.765.572q-2.558 1.895-5.251 3.597a90.956 90.956 0 0 1-12.97 6.779l1.575-.664a95.992 95.992 0 0 1-24.256 6.638l1.753-.236a95.06 95.06 0 0 1-25.128.044l1.753.236a87.748 87.748 0 0 1-22.058-5.963l1.575.664a82.306 82.306 0 0 1-11.792-6.145q-2.79-1.758-5.435-3.734c-.251-.187-.501-.378-.751-.567-.804-.607.578.448.589.455a16.848 16.848 0 0 1-1.348-1.077q-1.278-1.041-2.516-2.129a89.642 89.642 0 0 1-9.223-9.413q-1.066-1.26-2.087-2.558c-.294-.374-.831-1.134.355.466-.156-.211-.318-.417-.476-.627q-.569-.754-1.122-1.519-1.936-2.679-3.681-5.49a96.058 96.058 0 0 1-6.86-13.279l.664 1.574a93.684 93.684 0 0 1-6.451-23.588l.235 1.753a86.017 86.017 0 0 1-.042-22.532l-.236 1.753a83.211 83.211 0 0 1 5.797-21.058l-.665 1.575a89.262 89.262 0 0 1 6.325-12.179q1.815-2.921 3.847-5.699.462-.632.934-1.255c.285-.376 1.068-1.313-.269.341.132-.162.258-.329.387-.492q1.115-1.413 2.285-2.782a94.399 94.399 0 0 1 9.565-9.686q1.296-1.136 2.632-2.224.607-.494 1.223-.978c.164-.129.33-.255.494-.385-1.756 1.398-.488.38-.09.081q2.755-2.064 5.657-3.92a91.096 91.096 0 0 1 13.523-7.127l-1.574.664c6.821-2.864 37.038-9.623 42.535-8.886l-1.753-.235a93.364 93.364 0 0 1 23.485 6.488l-1.575-.664a96.958 96.958 0 0 1 11.075 5.564q2.675 1.567 5.245 3.307 1.216.823 2.407 1.683.595.43 1.183.869l.651.49c.914.685-1.258-.992-.301-.235a97.423 97.423 0 0 1 9.113 8.133q2.11 2.149 4.076 4.434 1.008 1.173 1.974 2.38c.321.4 1.411 1.846.075.074.327.433.657.864.979 1.301a86.115 86.115 0 0 1 7.376 11.898c1.576 3.075 6.141 4.221 9.019 2.365a6.748 6.748 0 0 0 2.364-9.019Z" fill="#3f3d56"/><path d="M380.135 450.414a3.322 3.322 0 0 1-2.408-5.759l.229-.905-.091-.217c-3.059-7.292-22.575 13.038-23.419 19.892a26.393 26.393 0 0 0 .463 9.078 105.816 105.816 0 0 1-9.626-43.949 102.134 102.134 0 0 1 .633-11.394q.526-4.652 1.457-9.238a107.042 107.042 0 0 1 21.227-45.368c6.042.337 11.336-.584 11.848-12.293.091-2.083 1.635-3.886 1.976-5.938a27.001 27.001 0 0 1-1.74.161l-.548.028-.068.004a3.292 3.292 0 0 1-2.704-5.362l.747-.919c.378-.473.766-.936 1.144-1.409a1.639 1.639 0 0 0 .123-.142c.435-.539.87-1.069 1.305-1.608a9.519 9.519 0 0 0-3.12-3.016c-4.359-2.552-10.373-.785-13.521 3.158-3.158 3.943-3.754 9.475-2.657 14.401a38.144 38.144 0 0 0 5.276 11.763c-.237.302-.483.595-.719.898a107.734 107.734 0 0 0-11.244 17.814c.893-6.978-10.03-32.176-14.255-37.513-5.074-6.412-15.479-3.614-16.373 4.513l-.026.236q.942.531 1.843 1.128a4.506 4.506 0 0 1-1.817 8.2l-.091.014c-8.399 11.992 18.525 43.204 25.265 36.196a109.963 109.963 0 0 0-5.92 27.855 104.297 104.297 0 0 0 .076 16.84l-.028-.199c-1.498-12.201-27.186-30.342-34.688-28.832-4.322.87-8.578.672-7.922 5.032l.032.208a30.272 30.272 0 0 1 3.394 1.636q.94.532 1.842 1.128a4.506 4.506 0 0 1-1.817 8.2l-.091.014-.189.029c-3.823 13.154 24.528 34.384 41.764 27.628h.01a109.932 109.932 0 0 0 7.385 21.558h26.381c.094-.293.179-.596.265-.889a29.973 29.973 0 0 1-7.3-.435c1.957-2.401 3.915-4.822 5.871-7.224a1.636 1.636 0 0 0 .123-.142c.993-1.23 1.995-2.45 2.988-3.678v-.002a43.904 43.904 0 0 0-1.286-11.184Zm-30.209-59.427.013-.019-.014.038Zm-5.845 52.676-.226-.51c.009-.369.009-.738 0-1.116 0-.105-.019-.208-.019-.312.085.652.161 1.304.255 1.957ZM93.386 385.851a9.668 9.668 0 0 1-9.669 9.668 9.668 9.668 0 0 1-9.668-9.668 9.668 9.668 0 0 1 19.337 0zm116.018 105.472a9.668 9.668 0 0 1-9.668 9.668 9.668 9.668 0 0 1-9.668-9.668 9.668 9.668 0 0 1 19.336 0zm440.345 0a9.668 9.668 0 0 1-9.668 9.668 9.668 9.668 0 0 1-9.668-9.668 9.668 9.668 0 0 1 19.336 0zm23.731-123.051a9.668 9.668 0 0 1-9.668 9.668 9.668 9.668 0 0 1-9.668-9.668 9.668 9.668 0 0 1 19.336 0zm-28.126-89.651a9.668 9.668 0 0 1-9.668 9.668 9.668 9.668 0 0 1-9.668-9.668 9.668 9.668 0 0 1 19.336 0zm-413.097 89.651a9.623 9.623 0 1 1-.185-1.898 9.661 9.661 0 0 1 .185 1.898Zm203.033-61.525a9.668 9.668 0 0 1-9.668 9.668 9.668 9.668 0 0 1-9.669-9.668 9.668 9.668 0 0 1 19.337 0zm-105.472 0a9.623 9.623 0 1 1-.185-1.898 9.661 9.661 0 0 1 .185 1.898ZM205.01 278.621a9.623 9.623 0 1 1-.185-1.898 9.661 9.661 0 0 1 .185 1.898Zm331.357 110.746a9.668 9.668 0 0 1-9.668 9.668 9.668 9.668 0 0 1-9.669-9.668 9.668 9.668 0 0 1 19.337 0zm-147.661-92.288a14.063 14.063 0 0 1-14.062 14.063 14.063 14.063 0 0 1-14.063-14.063 14.063 14.063 0 0 1 28.125 0z" fill="#3f3d56"/><path d="M754.949 501.729 1.046 502a1.046 1.046 0 1 1 0-2.093l753.903-.271a1.046 1.046 0 0 1 0 2.094Z" fill="#cacaca"/></svg>