<svg xmlns="http://www.w3.org/2000/svg" data-name="Layer 1" width="600" height="478" viewBox="0 0 518.931 478"><path d="M238.279 262.99c-.092 0-.151-.002-.172-.003l-11.095.002v-1.636h11.136c.258.008 5.518.157 10.364-5.724 7.223-8.765 13.154-30.462.394-84.055-17.158-72.063-2.847-135.726 4.101-159.752a7.977 7.977 0 0 0-7.674-10.186H79.626a8.013 8.013 0 0 0-6.462 3.289c-2.944 4.049-6.983 11.828-9.512 25.894l-1.61-.289c2.582-14.372 6.754-22.38 9.798-26.567A9.653 9.653 0 0 1 79.625 0h165.708a9.614 9.614 0 0 1 9.247 12.276c-6.912 23.902-21.149 87.235-4.082 158.919 12.941 54.347 6.72 76.514-.777 85.54-4.945 5.953-10.393 6.254-11.441 6.254Z" fill="#e6e6e6"/><path d="M208.422 292.847c-.092 0-.151-.002-.172-.003l-11.095.001v-1.636h11.136c.259.008 5.518.157 10.364-5.724 7.223-8.765 13.154-30.462.394-84.055-17.158-72.063-2.847-135.726 4.101-159.752a7.977 7.977 0 0 0-7.675-10.186H49.769a8.013 8.013 0 0 0-6.462 3.289c-2.944 4.049-6.983 11.828-9.511 25.894l-1.611-.289c2.582-14.372 6.754-22.38 9.798-26.567a9.653 9.653 0 0 1 7.786-3.963h165.707a9.614 9.614 0 0 1 9.247 12.276c-6.912 23.902-21.149 87.235-4.082 158.919 12.941 54.347 6.72 76.514-.777 85.54-4.945 5.953-10.393 6.254-11.441 6.254Z" fill="#ccc"/><path d="M178.565 322.704c-.092 0-.151-.002-.172-.003l-163.152.002a9.612 9.612 0 0 1-8.94-13.172c5.92-14.789 13.891-50.274.762-121.751C-8.44 103.378 5.439 72.875 12.126 63.678a9.653 9.653 0 0 1 7.786-3.964h165.707a9.614 9.614 0 0 1 9.247 12.276c-6.912 23.902-21.149 87.235-4.082 158.919 12.941 54.347 6.72 76.514-.777 85.54-4.945 5.953-10.393 6.254-11.441 6.254ZM19.912 61.35a8.013 8.013 0 0 0-6.462 3.289c-6.563 9.027-20.165 39.065-4.777 122.844 12.541 68.282 6.458 104.389-.853 122.655a7.842 7.842 0 0 0 .799 7.414 7.986 7.986 0 0 0 6.622 3.513h163.193c.258.012 5.518.158 10.364-5.724 7.223-8.765 13.154-30.462.394-84.055-17.158-72.063-2.847-135.726 4.101-159.752a7.977 7.977 0 0 0-7.674-10.184Z" fill="#3f3d56"/><path d="M157.434 133.335H27.371a6.544 6.544 0 1 1 0-13.088h130.063a6.544 6.544 0 0 1 0 13.088Z" fill="#307ed6"/><path d="M157.434 161.147H27.371a6.544 6.544 0 1 1 0-13.088h130.063a6.544 6.544 0 0 1 0 13.088Zm0 27.812H27.371a6.544 6.544 0 1 1 0-13.088h130.063a6.544 6.544 0 0 1 0 13.088Zm9.816 27.812H37.187a6.544 6.544 0 1 1 0-13.088H167.25a6.544 6.544 0 0 1 0 13.088Zm0 27.812H37.187a6.544 6.544 0 1 1 0-13.088H167.25a6.544 6.544 0 0 1 0 13.088Z" fill="#ccc"/><path d="M88.721 105.522h-61.35a6.544 6.544 0 1 1 0-13.088h61.35a6.544 6.544 0 0 1 0 13.088Z" fill="#307ed6"/><path d="M80.8 289.428c1.32-5.591 7.524-7.424 12.596-7.219a53.766 53.766 0 0 1 9.497 1.503c3.26.729 6.487 1.593 9.698 2.508 5.888 1.679 11.716 3.71 17.702 5.023 4.982 1.093 10.397 1.734 15.366.225 4.777-1.45 8.83-5.011 10.129-9.934 1.225-4.64-.457-9.712-4.953-11.832-4.099-1.934-9.278-.951-11.31 3.422-2.29 4.93-.002 10.307 3.625 13.873a40.629 40.629 0 0 0 6.739 5.119 25.093 25.093 0 0 0 8.069 3.614c4.732 1.01 10.369-.479 12.81-5a8.45 8.45 0 0 0 .958-3.302c.145-1.572-2.31-1.562-2.454 0-.413 4.501-5.685 6.609-9.628 6.116a19.57 19.57 0 0 1-7.464-2.897 43.74 43.74 0 0 1-6.183-4.362c-3.343-2.893-6.479-7.656-4.232-12.171 1.829-3.677 6.596-3.64 9.495-1.269 3.511 2.871 2.885 8.084.569 11.494-2.564 3.777-7.212 5.36-11.594 5.53-4.762.186-9.484-.906-14.034-2.199-5.654-1.606-11.252-3.403-16.934-4.915-3.225-.859-6.476-1.633-9.76-2.236a32.211 32.211 0 0 0-9.464-.654c-5.121.591-10.348 3.571-11.608 8.911-.363 1.536 2.002 2.191 2.366.653Z" fill="#3f3d56"/><path d="M331.517 428.176a374.671 374.671 0 0 0 3.532 48.144c.078.56.162 1.121.24 1.681l150.841-.843a62.008 62.008 0 0 0 1.301-1.69 71.713 71.713 0 0 0 3.94-5.832c5.824-9.666 8.491-20.984 5.818-28.792l-.048-.122a13.702 13.702 0 0 0-2.674-4.646c-6.092-6.857-18.408-5.714-29.585-.18 10.025-10.973 18.008-24.82 18.614-37.18.595-12.056-5.71-20.668-12.547-27.987a69.352 69.352 0 0 0-.673-.712c-.109-.121-.224-.236-.333-.357-5.334-5.577-11.553-11.076-20.556-10.411-9.873.731-20.818 9-28.494 18.637-7.675 9.63-12.776 20.57-17.945 31.245-5.176 10.67-10.777 21.612-19.083 30.732 11.25-14.23 20.321-30.422 23.671-46.168s.402-30.869-9.625-38.286a23.451 23.451 0 0 0-10.272-4.145 26.825 26.825 0 0 0-1.319-.182c-9.282-1.055-20.364 2.155-29.793 9.827-10.384 8.449-17.583 20.974-21.165 32.865-3.581 11.89-3.963 23.337-3.848 34.402Z" fill="#f2f2f2"/><path d="m430.207 477.469 2.884-.016q1.374-.859 2.761-1.697c.573-.361 1.151-.708 1.73-1.063q14.352-8.765 28.882-16.815 14.518-8.057 29.181-15.37a1.209 1.209 0 0 0 .695-1.382.348.348 0 0 0-.049-.101c-.136-.256-.44-.362-.885-.144-1.199.601-2.405 1.202-3.604 1.817q-14.704 7.44-29.281 15.621-14.567 8.178-28.969 17.079c-.201.123-.403.252-.605.375-.916.566-1.824 1.132-2.74 1.697Zm-37.191.208 1.783-.01c.402-.563.798-1.126 1.2-1.688q14.178-19.882 28.349-39.762 23.208-32.548 46.401-65.096a1.148 1.148 0 0 0 .2-.393c.133-.481-.221-.762-.673-.712a1.355 1.355 0 0 0-.942.6q-13.011 18.253-26.016 36.493l-46.166 64.763c-.978 1.37-1.957 2.748-2.936 4.118-.402.563-.805 1.126-1.2 1.688Zm-39.735-10.357c.091 3.006.29 5.963.55 8.895l.151 1.681 1.872-.011c-.057-.56-.115-1.121-.165-1.681-.395-4.234-.676-8.515-.714-12.914a180.149 180.149 0 0 1 3.547-36.312 226.094 226.094 0 0 1 10.984-37.726 259.081 259.081 0 0 1 17.972-37.325.997.997 0 0 0 .164-.663c-.077-.533-.787-.692-1.318-.182a1.549 1.549 0 0 0-.268.339q-1.295 2.227-2.542 4.466a258.902 258.902 0 0 0-17.201 37.456 225.025 225.025 0 0 0-10.24 37.783 177.728 177.728 0 0 0-2.791 36.193Z" fill="#fff"/><path d="M170.967 290.009a2.045 2.045 0 0 1 1.114-3.607 33.775 33.775 0 0 1 13.246 1.358l43.612 13.468a4.499 4.499 0 0 1-2.655 8.597l-43.612-13.468a33.777 33.777 0 0 1-11.706-6.348Z" fill="#3f3d56"/><path d="M349.739 345.96a8.788 8.788 0 0 1-3.982-12.873l-7.476-39.093 19.053-1.485 1.15 38.239a8.834 8.834 0 0 1-8.745 15.212Z" fill="#ffb8b8"/><path d="m337.106 325.784-19.405-90.375a14.315 14.315 0 1 1 27.992-6.009l19.405 90.374a3.686 3.686 0 0 1-2.826 4.372l-20.794 4.465a3.679 3.679 0 0 1-4.372-2.826Z" fill="#307ed6"/><path fill="#ffb8b8" d="M305.254 467.95h-10.028l-4.771-38.682 14.802.001-.003 38.681Z"/><path d="M288.063 465.084h19.34v12.178h-31.518a12.178 12.178 0 0 1 12.178-12.178Z" fill="#2f2e41"/><path fill="#ffb8b8" d="M338.792 467.132h-10.027l-4.772-38.682 14.802.001-.003 38.681Z"/><path d="M321.601 464.266h19.34v12.178h-31.518a12.178 12.178 0 0 1 12.178-12.178Zm-28.362-3.531a3.656 3.656 0 0 1-1.323-2.505l-11.657-128.247a3.681 3.681 0 0 1 3.528-4.011l58.471-2.192a3.683 3.683 0 0 1 3.816 3.814L341.4 455.346a3.688 3.688 0 0 1-3.346 3.531l-11.789 1.072a3.681 3.681 0 0 1-4.006-3.421l-5.411-81.16a1.175 1.175 0 0 0-1.224-1.145h-.005a1.175 1.175 0 0 0-1.22 1.155l-4.843 81.706a3.665 3.665 0 0 1-3.308 3.445l-10.299 1.031a3.656 3.656 0 0 1-2.71-.825Z" fill="#2f2e41"/><path fill="#ffb8b8" d="M335.821 179.112a20.091 20.091 0 0 1-20.091 20.091 20.091 20.091 0 0 1-20.091-20.091 20.091 20.091 0 0 1 40.182 0z"/><path d="M277.041 330.852a3.65 3.65 0 0 1-.861-3.009c3.71-22.545 1.619-55.685-.789-79.516a36.156 36.156 0 0 1 14.921-32.966l10.493-8.994a3.738 3.738 0 0 1 2.501-.885l26.066.744a3.667 3.667 0 0 1 2.497 1.078l4.028 8.92.042.03a36.049 36.049 0 0 1 14.655 30.831l-3.836 79.295a3.701 3.701 0 0 1-3.556 3.501l-63.271 2.223-.123.002a3.673 3.673 0 0 1-2.767-1.253Z" fill="#307ed6"/><path d="M201.149 297.763a8.788 8.788 0 0 1 10.115-8.902l32.61-22.821 9.153 16.776-34.419 16.7a8.834 8.834 0 0 1-17.459-1.753Z" fill="#ffb8b8"/><path d="M228.593 301.73a3.659 3.659 0 0 1-2.41-1.46l-12.584-17.145a3.686 3.686 0 0 1 .789-5.145l74.515-54.695a14.315 14.315 0 0 1 16.941 23.081l-74.515 54.694a3.656 3.656 0 0 1-2.17.714 3.764 3.764 0 0 1-.566-.043Z" fill="#307ed6"/><path d="M316.759 196.997c2.664-3.267 2.372-8.243.235-11.876s-5.769-6.135-9.504-8.09-7.703-3.49-11.218-5.818-3.362-12.178-4.298-16.288l2.232.744c-.858-1.098-1.133-4.341-1.991-5.439 2.523.249 4.462 2.645 6.984 2.894l-1.456-3.908c8.65-.533 14.029 5.477 22.678 4.944 4.286-.264 8.941-.431 12.463 2.023 3.062 2.133 4.612 5.824 5.628 9.415 2.184 7.708 2.524 16.342-1.247 23.411s-12.464 11.831-20.057 9.279Z" fill="#2f2e41"/><path d="M206.453 477.714h311.659a.818.818 0 0 0 0-1.636H206.453a.818.818 0 0 0 0 1.636Z" fill="#3f3d56"/></svg>