<svg id="Layer_1" data-name="Layer 1" xmlns="http://www.w3.org/2000/svg" xmlns:xlink="http://www.w3.org/1999/xlink" viewBox="0 0 1080 1080"><defs><linearGradient id="linear-gradient" x1="412.08" y1="306.1" x2="853.7" y2="386.96" gradientUnits="userSpaceOnUse"><stop offset="0" stop-color="#4a90e2"/><stop offset="1" stop-color="#93ccea"/></linearGradient><linearGradient id="linear-gradient-2" x1="118.71" y1="644.83" x2="16.29" y2="542.4" gradientUnits="userSpaceOnUse"><stop offset="0" stop-color="#fff"/><stop offset="1" stop-color="#72b1e6"/></linearGradient><linearGradient id="linear-gradient-3" x1="269.73" y1="1003.65" x2="167.31" y2="901.22" xlink:href="#linear-gradient-2"/><linearGradient id="linear-gradient-4" x1="1026.92" y1="836.27" x2="924.49" y2="733.84" xlink:href="#linear-gradient-2"/><linearGradient id="linear-gradient-5" x1="939.64" y1="248.18" x2="837.21" y2="145.75" xlink:href="#linear-gradient-2"/><linearGradient id="linear-gradient-6" x1="297.51" y1="128.09" x2="195.08" y2="25.66" xlink:href="#linear-gradient-2"/><style>.cls-2{fill:#2c3e50}</style></defs><circle cx="540" cy="540" r="375" style="fill:#edeef5"/><path class="cls-2" d="M849.48 442.24v1.26c-.1 12.13-1.68 23.91-4.58 35.17a144.798 144.798 0 0 1-14.9 36.42c-25.19 43.55-72.27 72.84-126.19 72.84h-95.42v-72.84h95.42c13.27 0 25.71-3.54 36.42-9.75a73.038 73.038 0 0 0 26.67-26.67c6.21-10.71 9.75-23.15 9.75-36.42s-3.54-25.71-9.75-36.42a73.038 73.038 0 0 0-26.67-26.67c-10.71-6.21-23.15-9.75-36.42-9.75h72.84c26.97 0 50.5 14.65 63.09 36.42 1.21 2.08 2.31 4.23 3.32 6.43.48 1.08.94 2.17 1.37 3.26.22.55.43 1.1.63 1.66.2.55.4 1.11.59 1.67.19.57.38 1.13.55 1.7.17.52.32 1.07.47 1.6.03.07.04.14.06.2.11.4.23.8.33 1.2.08.27.15.55.21.82.09.31.16.63.24.94.06.24.12.5.17.75.09.4.18.81.26 1.22.03.16.07.32.1.48.1.49.2.98.28 1.47 0 .03.02.05.02.08.1.51.18 1.02.26 1.55.09.54.17 1.08.24 1.62.08.54.14 1.08.2 1.63.04.36.08.72.1 1.07.05.44.09.87.12 1.31.1 1.23.17 2.46.2 3.7v.05c.02.66.03 1.34.03 2Z"/><path d="M849.45 440.18c-.03-1.24-.1-2.47-.2-3.7-.03-.44-.07-.87-.12-1.31-.03-.36-.06-.72-.1-1.07-.06-.54-.12-1.09-.2-1.63-.07-.54-.15-1.08-.24-1.62-.08-.52-.17-1.04-.26-1.55 0-.03 0-.05-.02-.08-.08-.49-.17-.98-.28-1.47-.03-.16-.06-.32-.1-.48-.08-.41-.17-.82-.26-1.22-.05-.25-.11-.51-.17-.75-.08-.31-.15-.63-.24-.94-.06-.27-.14-.55-.21-.82-.1-.4-.22-.8-.33-1.2-.02-.06-.03-.13-.06-.2-.15-.53-.31-1.07-.47-1.6-.17-.57-.36-1.13-.55-1.69-.19-.57-.39-1.13-.59-1.68-.2-.56-.41-1.11-.63-1.66-.43-1.09-.89-2.17-1.37-3.25-1-2.22-2.1-4.37-3.32-6.44-12.59-21.77-36.13-36.42-63.09-36.42H400.5l72.84-72.84h230.45c53.93 0 101.01 29.29 126.19 72.84a144.428 144.428 0 0 1 14.9 36.42c.31 1.22.62 2.45.9 3.69 2.27 9.88 3.52 20.15 3.67 30.68Z" style="fill:url(#linear-gradient)"/><path class="cls-2" d="M719.5 405.81v72.85H571.44v338.5l-72.83 72.83h-.01V478.66H347.36l-36.43-36.42-36.41-36.43H719.5z"/><rect x="7.5" y="533.61" width="120" height="120" rx="30" ry="30" style="fill:url(#linear-gradient-2)"/><path class="cls-2" d="M32.5 558.61c-5.52 0-10 4.48-10 10v5h90v-5c0-5.52-4.48-10-10-10h-70Zm80 30h-90v30c0 5.52 4.48 10 10 10h70c5.52 0 10-4.48 10-10v-30Zm-72.5 20h10c1.38 0 2.5 1.13 2.5 2.5s-1.12 2.5-2.5 2.5H40c-1.38 0-2.5-1.13-2.5-2.5s1.12-2.5 2.5-2.5Zm17.5 2.5c0-1.37 1.12-2.5 2.5-2.5h20c1.37 0 2.5 1.13 2.5 2.5s-1.13 2.5-2.5 2.5H60c-1.38 0-2.5-1.13-2.5-2.5Z"/><rect x="158.52" y="892.43" width="120" height="120" rx="30" ry="30" style="fill:url(#linear-gradient-3)"/><path class="cls-2" d="M210.08 907.43c-3.11 0-5.62 2.51-5.62 5.62s2.51 5.62 5.62 5.62h2.81v6.05c-17.53 2.71-30.94 17.86-30.94 36.14 0 20.2 16.37 36.56 36.56 36.56s36.56-16.37 36.56-36.56c0-7.35-2.16-14.19-5.89-19.9l4.24-4.24c2.2-2.2 2.2-5.77 0-7.96s-5.77-2.2-7.96 0l-3.8 3.8c-4.94-4.04-10.93-6.82-17.53-7.84v-6.05h2.81c3.11 0 5.62-2.51 5.62-5.62s-2.51-5.62-5.62-5.62h-16.88Zm12.66 33.75v22.5c0 2.34-1.88 4.22-4.22 4.22s-4.22-1.88-4.22-4.22v-22.5c0-2.34 1.88-4.22 4.22-4.22s4.22 1.88 4.22 4.22Z"/><rect x="915.7" y="725.05" width="120" height="120" rx="30" ry="30" style="fill:url(#linear-gradient-4)"/><path class="cls-2" d="M975.7 740.05c.81 0 1.63.18 2.37.51l33.28 14.12c3.89 1.64 6.79 5.48 6.77 10.11-.09 17.53-7.3 49.61-37.75 64.19a10.818 10.818 0 0 1-9.33 0c-30.45-14.58-37.66-46.66-37.75-64.19-.02-4.63 2.88-8.47 6.77-10.11l33.3-14.12c.72-.34 1.54-.51 2.35-.51Zm0 11.81v66.81c24.39-11.81 30.95-37.95 31.11-53.63l-31.11-13.19Z"/><rect x="828.43" y="136.96" width="120" height="120" rx="30" ry="30" style="fill:url(#linear-gradient-5)"/><path class="cls-2" d="M857.49 163.21c0-6.21 5.04-11.25 11.25-11.25h39.38c6.21 0 11.25 5.04 11.25 11.25v67.5c0 6.21-5.04 11.25-11.25 11.25h-39.38c-6.21 0-11.25-5.04-11.25-11.25v-67.5Zm36.56 67.5c0-3.11-2.52-5.62-5.62-5.62s-5.62 2.52-5.62 5.62 2.52 5.62 5.62 5.62 5.62-2.52 5.62-5.62Zm14.06-67.5h-39.38v56.25h39.38v-56.25Z"/><rect x="186.29" y="16.87" width="120" height="120" rx="30" ry="30" style="fill:url(#linear-gradient-6)"/><path class="cls-2" d="M246.29 31.87c21.94 0 39.38 6.19 39.38 14.06v59.06c0 3.11-2.51 5.62-5.62 5.62v5.62c0 3.11-2.51 5.62-5.62 5.62h-5.62c-3.11 0-5.62-2.51-5.62-5.62v-5.62h-33.75v5.62c0 3.11-2.51 5.62-5.62 5.62h-5.62c-3.11 0-5.62-2.51-5.62-5.62v-5.62c-3.11 0-5.62-2.51-5.62-5.62V45.93c0-7.87 17.44-14.06 39.38-14.06Zm-28.12 22.5v22.5c0 3.11 2.51 5.62 5.62 5.62h45c3.11 0 5.62-2.51 5.62-5.62v-22.5c0-3.11-2.51-5.62-5.62-5.62h-45c-3.11 0-5.62 2.51-5.62 5.62Zm2.81 47.81c3.11 0 5.62-2.52 5.62-5.62s-2.52-5.62-5.62-5.62-5.62 2.52-5.62 5.62 2.52 5.62 5.62 5.62Zm50.62 0c3.11 0 5.62-2.52 5.62-5.62s-2.52-5.62-5.62-5.62-5.62 2.52-5.62 5.62 2.52 5.62 5.62 5.62Z"/></svg>