<svg width="103" height="25" viewBox="0 0 103 25" fill="none" xmlns="http://www.w3.org/2000/svg"><path d="M33.117 3.986a2.4 2.4 0 0 1-.664 1.769 2.574 2.574 0 0 1-1.946.787 2.733 2.733 0 0 1-2.759-2.768 2.733 2.733 0 0 1 2.76-2.769c.373 0 .744.074 1.087.221.32.13.605.333.832.593l-.47.469a1.769 1.769 0 0 0-1.45-.628 2.052 2.052 0 0 0-2.06 2.114 2.087 2.087 0 0 0 3.538 1.53c.272-.295.429-.678.442-1.08h-1.92v-.636h2.574c.024.131.036.264.035.398Zm4.05-2.211h-2.388v1.68h2.175v.637H34.78v1.68h2.388v.655H34.07V1.12h3.096v.655Zm2.901 4.652h-.681V1.775h-1.486V1.12h3.688v.655h-1.521v4.652Zm4.122 0V1.12h.68v5.307h-.68Zm3.705 0h-.68V1.775h-1.487V1.12h3.644v.655h-1.477v4.652Z" fill="#fff" stroke="#fff" stroke-width=".2"/><path fill-rule="evenodd" clip-rule="evenodd" d="M51.61 3.774a2.72 2.72 0 0 0 .778 1.963 2.76 2.76 0 0 0 3.892 0c.514-.523.794-1.23.778-1.963a2.715 2.715 0 0 0-.778-1.964 2.742 2.742 0 0 0-3.892 0 2.716 2.716 0 0 0-.778 1.964Zm4.166 1.521a2.043 2.043 0 0 1-2.884 0 2.078 2.078 0 0 1-.592-1.521 2.078 2.078 0 0 1 .557-1.521 2.043 2.043 0 0 1 2.883 0c.41.399.637.949.628 1.52a2.079 2.079 0 0 1-.592 1.522Z" fill="#fff"/><path d="m52.388 5.737-.071.07.071-.07Zm-.778-1.963.1.002V3.77l-.1.003Zm4.67 1.963.07.07h.001l-.071-.07Zm.778-1.963-.1-.003v.005l.1-.002ZM56.28 1.81l.071-.07-.071.07Zm-3.892 0-.07-.07h-.001l.071.07Zm.504 3.485-.071.07v.001l.071-.07Zm2.884 0 .07.071h.001l-.071-.07ZM52.3 3.774l.1.003V3.77l-.1.005Zm.557-1.521-.07-.071-.003.002.073.069Zm2.883 0-.07.07v.001l.07-.071Zm.628 1.52h-.1v.004l.1-.003ZM52.46 5.668a2.615 2.615 0 0 1-.75-1.891l-.2-.005c-.017.76.274 1.494.807 2.036l.143-.14Zm3.75 0a2.66 2.66 0 0 1-3.751 0l-.141.14a2.86 2.86 0 0 0 4.032 0l-.14-.14Zm.748-1.891a2.615 2.615 0 0 1-.75 1.89l.143.141a2.815 2.815 0 0 0 .807-2.036l-.2.005Zm-.75-1.896c.495.504.766 1.186.75 1.891l.2.005a2.815 2.815 0 0 0-.807-2.036l-.142.14Zm-1.874-.78c.704 0 1.379.281 1.875.78l.142-.14A2.842 2.842 0 0 0 54.334.9v.2Zm-1.875.78a2.644 2.644 0 0 1 1.875-.78V.9c-.757 0-1.483.302-2.017.84l.142.14Zm-.749 1.891a2.615 2.615 0 0 1 .75-1.89l-.143-.141a2.815 2.815 0 0 0-.807 2.036l.2-.005Zm1.112 1.595a2.143 2.143 0 0 0 3.024 0l-.141-.142a1.943 1.943 0 0 1-2.742 0l-.141.142ZM52.2 3.771c-.02.594.205 1.17.62 1.594l.144-.14a1.978 1.978 0 0 1-.564-1.448l-.2-.006Zm.584-1.587A2.178 2.178 0 0 0 52.2 3.78l.2-.01a1.978 1.978 0 0 1 .53-1.448l-.146-.137Zm3.027-.002a2.143 2.143 0 0 0-3.025 0l.142.142a1.943 1.943 0 0 1 2.742 0l.14-.142Zm.657 1.593a2.177 2.177 0 0 0-.658-1.594l-.14.143c.39.38.607.904.598 1.448l.2.003Zm-.621 1.59c.416-.424.64-1 .621-1.594l-.2.006a1.978 1.978 0 0 1-.564 1.448l.143.14Z" fill="#fff"/><path d="M58.022 6.427V1.12h.831l2.583 4.13V1.12h.68v5.307h-.707l-2.706-4.325v4.325h-.681Z" fill="#fff" stroke="#fff" stroke-width=".2"/><path fill-rule="evenodd" clip-rule="evenodd" d="M33.4 15.324v1.592h3.82a3.334 3.334 0 0 1-.884 2.008 3.91 3.91 0 0 1-2.945 1.167 4.245 4.245 0 0 1 0-8.49 4.069 4.069 0 0 1 2.892 1.14l1.123-1.123a5.563 5.563 0 0 0-4.007-1.653 5.846 5.846 0 1 0 0 11.683 5.307 5.307 0 0 0 4.078-1.636 5.307 5.307 0 0 0 1.38-3.733 5.186 5.186 0 0 0-.09-.999l-5.368.044Zm9.808-1.159a3.759 3.759 0 1 0 3.768 3.76 3.706 3.706 0 0 0-3.777-3.76h.01Zm4.493 3.771a3.759 3.759 0 0 1 3.741-3.77 3.706 3.706 0 0 1 3.777 3.758 3.759 3.759 0 0 1-7.518.012Zm1.688.978a2.282 2.282 0 0 0 2.218 1.293 2.175 2.175 0 0 0 2.123-2.282 2.282 2.282 0 1 0-4.34.99Zm-8.262.006a2.282 2.282 0 0 0 2.224 1.286h-.008a2.176 2.176 0 0 0 2.122-2.282 2.282 2.282 0 1 0-4.338.996Zm29.127-4.754a3.538 3.538 0 0 1 3.22 2.396l.185.398-5.032 2.079a1.91 1.91 0 0 0 1.822 1.14 2.15 2.15 0 0 0 1.848-1.043l1.282.884a3.741 3.741 0 0 1-3.13 1.663 3.679 3.679 0 0 1-3.733-3.759 3.538 3.538 0 0 1 3.538-3.758Zm-1.91 3.652a2.06 2.06 0 0 1 1.963-2.193 1.46 1.46 0 0 1 1.397.796l-3.36 1.397Zm-2.433 3.644h-1.654V10.407h1.654v11.055Zm-4.36-6.456h-.062a2.653 2.653 0 0 0-1.98-.885 3.768 3.768 0 0 0 0 7.527 2.564 2.564 0 0 0 1.98-.884h.053v.54c0 1.44-.77 2.21-2.007 2.21a2.078 2.078 0 0 1-1.893-1.335l-1.442.601A3.582 3.582 0 0 0 59.535 25c1.937 0 3.537-1.14 3.537-3.918v-6.695h-1.52v.619Zm-1.895 5.2h.002-.009.007Zm1.49-.71c-.38.43-.918.686-1.49.71a2.29 2.29 0 0 1 .002-4.563 2.123 2.123 0 0 1 2.008 2.281 2.105 2.105 0 0 1-.52 1.573Zm20.075-9.089h-3.963v11.055h1.654V17.27h2.309a3.44 3.44 0 1 0 0-6.863Zm-2.309 5.306h2.309l.035.027a1.897 1.897 0 0 0 0-3.794h-2.344v3.768Zm12.506-1.591a3.096 3.096 0 0 0-2.945 1.69l1.468.61a1.566 1.566 0 0 1 1.504-.814 1.592 1.592 0 0 1 1.769 1.424v.115a3.654 3.654 0 0 0-1.725-.425c-1.583 0-3.184.884-3.184 2.485a2.556 2.556 0 0 0 2.742 2.433 2.326 2.326 0 0 0 2.123-1.062h.052v.885h1.593v-4.255c0-1.936-1.469-3.06-3.352-3.06l-.045-.026Zm-1.494 5.12c0 .664.751.938 1.291.938l.044.026a1.999 1.999 0 0 0 1.937-1.768 2.936 2.936 0 0 0-1.503-.372c-.832 0-1.77.292-1.77 1.176Zm10.692-4.855-1.892 4.793h-.053l-1.964-4.793h-1.769l2.945 6.704-1.68 3.723h1.725l4.528-10.427h-1.84Zm-13.213 7.075H85.75V10.407h1.654v11.055Z" fill="#fff"/><path d="M.41 1.598a1.769 1.769 0 0 0-.39 1.238V22.4c-.026.45.12.892.408 1.238l.062.062 10.94-10.949v-.256L.472 1.536l-.062.062Z" fill="url(#a)"/><path d="M15.056 16.404 11.43 12.75v-.256l3.626-3.662.08.044 4.342 2.468c1.238.698 1.238 1.848 0 2.556l-4.325 2.459-.097.044Z" fill="url(#b)"/><path d="m15.162 16.359-3.732-3.741L.41 23.638c.52.457 1.293.48 1.84.053l12.92-7.341" fill="url(#c)"/><path d="M15.162 8.886 2.241 1.546a1.442 1.442 0 0 0-1.84.052l11.029 11.02 3.732-3.732Z" fill="url(#d)"/><path opacity=".2" d="M15.056 16.27 2.241 23.567a1.477 1.477 0 0 1-1.77 0l-.061.062.062.062a1.468 1.468 0 0 0 1.769 0l12.921-7.341-.106-.08Z" fill="#000"/><path opacity=".12" d="M.41 23.514a1.769 1.769 0 0 1-.407-1.238v.132c-.027.45.119.893.407 1.238l.062-.061-.062-.071Zm19.068-9.747-4.422 2.503.08.08 4.342-2.459c.502-.235.84-.721.885-1.273-.101.5-.428.924-.885 1.15Z" fill="#000"/><path opacity=".25" d="m2.24 1.668 17.238 9.8c.457.226.784.65.885 1.15a1.548 1.548 0 0 0-.885-1.274l-17.237-9.8C1.01.838.02 1.422.02 2.837v.133c0-1.416.99-2 2.22-1.3Z" fill="#fff"/><defs><linearGradient id="a" x1="6.636" y1="-11.776" x2="-10.907" y2="-7.124" gradientUnits="userSpaceOnUse"><stop stop-color="#00A0FF"/><stop offset=".01" stop-color="#00A1FF"/><stop offset=".26" stop-color="#00BEFF"/><stop offset=".51" stop-color="#00D2FF"/><stop offset=".76" stop-color="#00DFFF"/><stop offset="1" stop-color="#00E3FF"/></linearGradient><linearGradient id="b" x1="21.097" y1="3.597" x2="-.298" y2="3.597" gradientUnits="userSpaceOnUse"><stop stop-color="#FFE000"/><stop offset=".41" stop-color="#FFBD00"/><stop offset=".78" stop-color="orange"/><stop offset="1" stop-color="#FF9C00"/></linearGradient><linearGradient id="c" x1=".086" y1="6.893" x2="-14.009" y2="30.602" gradientUnits="userSpaceOnUse"><stop stop-color="#FF3A44"/><stop offset="1" stop-color="#C31162"/></linearGradient><linearGradient id="d" x1="-8.196" y1="-1.448" x2="-1.904" y2="9.139" gradientUnits="userSpaceOnUse"><stop stop-color="#32A071"/><stop offset=".07" stop-color="#2DA771"/><stop offset=".48" stop-color="#15CF74"/><stop offset=".8" stop-color="#06E775"/><stop offset="1" stop-color="#00F076"/></linearGradient></defs></svg>