<svg width="90" height="24" viewBox="0 0 90 24" fill="none" xmlns="http://www.w3.org/2000/svg"><path d="M14.263 11.16c-.024-2.652 2.171-3.942 2.272-4.002-1.244-1.812-3.17-2.06-3.848-2.079-1.618-.17-3.188.968-4.012.968-.84 0-2.11-.951-3.479-.923C3.436 5.15 1.79 6.17.886 7.752-.98 10.98.41 15.721 2.197 18.33c.893 1.278 1.937 2.704 3.304 2.654 1.337-.055 1.836-.852 3.45-.852 1.598 0 2.067.852 3.46.82 1.436-.023 2.339-1.284 3.201-2.573 1.033-1.463 1.447-2.905 1.464-2.98-.033-.011-2.786-1.062-2.814-4.239ZM11.63 3.362c.72-.899 1.211-2.122 1.075-3.363-1.041.046-2.342.72-3.092 1.599-.663.775-1.256 2.045-1.103 3.24 1.17.086 2.37-.59 3.12-1.476ZM33.628 20.8h-1.869l-1.023-3.215h-3.558l-.975 3.215h-1.819L27.91 9.854h2.177l3.54 10.946Zm-3.2-4.564-.926-2.859c-.098-.292-.282-.98-.552-2.062h-.033a87.462 87.462 0 0 1-.52 2.062l-.91 2.859h2.94Zm12.248.52c0 1.343-.364 2.404-1.094 3.183-.653.693-1.465 1.04-2.434 1.04-1.045 0-1.797-.373-2.254-1.12V24H35.14v-8.499c0-.843-.022-1.707-.065-2.594h1.543l.097 1.251h.033c.585-.943 1.473-1.414 2.664-1.414.932 0 1.71.368 2.331 1.104.621.738.933 1.707.933 2.908Zm-1.787.064c0-.768-.172-1.401-.52-1.9-.379-.52-.888-.78-1.527-.78-.432 0-.826.146-1.177.43a1.996 1.996 0 0 0-.69 1.13 2.29 2.29 0 0 0-.082.534v1.317c0 .573.176 1.058.528 1.454.352.395.81.593 1.373.593.66 0 1.175-.256 1.542-.763.369-.51.553-1.18.553-2.015Zm10.868-.064c0 1.343-.365 2.404-1.094 3.183-.654.693-1.466 1.04-2.435 1.04-1.046 0-1.798-.373-2.254-1.12V24H44.22v-8.499c0-.843-.023-1.707-.065-2.594h1.542l.098 1.251h.033c.584-.943 1.472-1.414 2.664-1.414.93 0 1.708.368 2.332 1.104.62.738.933 1.707.933 2.908Zm-1.788.064c0-.768-.174-1.401-.52-1.9-.38-.52-.888-.78-1.526-.78-.433 0-.826.146-1.18.43a1.994 1.994 0 0 0-.689 1.13 2.342 2.342 0 0 0-.082.534v1.317c0 .573.177 1.058.527 1.454.353.394.81.593 1.374.593.662 0 1.176-.256 1.543-.763.369-.51.553-1.18.553-2.015Zm11.94.91c0 .931-.325 1.689-.973 2.274-.712.638-1.707.958-2.982.958-1.178 0-2.123-.227-2.836-.682l.406-1.462a4.88 4.88 0 0 0 2.534.683c.662 0 1.176-.15 1.543-.447.367-.297.553-.695.553-1.192 0-.445-.153-.818-.455-1.121-.304-.303-.806-.585-1.51-.844-1.918-.715-2.877-1.76-2.877-3.136 0-.898.339-1.633 1.015-2.208.676-.574 1.573-.861 2.689-.861.996 0 1.826.173 2.485.52l-.44 1.43c-.62-.336-1.32-.504-2.104-.504-.618 0-1.104.152-1.45.455-.293.27-.441.6-.441.992 0 .431.169.79.504 1.071.291.26.823.541 1.591.844.943.38 1.636.823 2.08 1.331.446.508.668 1.143.668 1.898Zm5.815-3.507H65.79v3.832c0 .975.34 1.46 1.024 1.46.313 0 .573-.025.779-.08l.048 1.331c-.345.13-.8.194-1.364.194-.692 0-1.234-.211-1.625-.634-.389-.423-.585-1.13-.585-2.128V14.22h-1.151v-1.316h1.151v-1.445l1.723-.52v1.965h1.934v1.319Zm8.706 2.565c0 1.214-.347 2.21-1.04 2.989-.725.802-1.69 1.201-2.891 1.201-1.16 0-2.082-.384-2.77-1.151-.688-.77-1.032-1.738-1.032-2.907 0-1.223.355-2.225 1.064-3.004.71-.78 1.666-1.17 2.868-1.17 1.158 0 2.089.386 2.793 1.154.673.745 1.008 1.707 1.008 2.888Zm-1.818.04c0-.722-.157-1.342-.47-1.861-.368-.627-.894-.94-1.576-.94-.703 0-1.242.313-1.609.94-.314.518-.47 1.15-.47 1.895 0 .723.156 1.345.47 1.863.38.626.908.94 1.594.94.67 0 1.196-.32 1.576-.956.323-.531.485-1.156.485-1.88Zm7.522-2.379a3.05 3.05 0 0 0-.553-.048c-.617 0-1.094.232-1.43.699-.291.411-.438.93-.438 1.559v4.14H77.96v-5.406a55.491 55.491 0 0 0-.05-2.485h1.527l.064 1.51h.049c.186-.52.477-.938.877-1.251a2.12 2.12 0 0 1 1.268-.423c.162 0 .308.012.438.032l.002 1.673Zm7.845 2.031a4.11 4.11 0 0 1-.064.795h-5.263c.02.78.275 1.377.764 1.789.443.366 1.017.55 1.721.55.78 0 1.49-.123 2.13-.372l.274 1.216c-.747.326-1.629.488-2.647.488-1.224 0-2.185-.36-2.884-1.079-.698-.72-1.048-1.687-1.048-2.899 0-1.189.325-2.18.976-2.97.681-.844 1.602-1.266 2.76-1.266 1.138 0 2 .422 2.585 1.266.463.668.696 1.497.696 2.482Zm-1.673-.455c.013-.52-.103-.969-.34-1.348-.304-.489-.771-.732-1.397-.732-.574 0-1.041.238-1.397.715-.292.379-.465.835-.519 1.363l3.653.002ZM26.672 5.983c-.488 0-.91-.024-1.26-.064V.627a9.552 9.552 0 0 1 1.484-.112c2.012 0 2.938.99 2.938 2.602 0 1.86-1.094 2.866-3.162 2.866Zm.295-4.79a3.52 3.52 0 0 0-.694.056v4.023c.103.017.302.024.582.024 1.318 0 2.068-.75 2.068-2.155 0-1.253-.678-1.948-1.956-1.948Zm5.754 4.83c-1.134 0-1.868-.846-1.868-1.995 0-1.198.75-2.052 1.932-2.052 1.118 0 1.869.807 1.869 1.988 0 1.213-.774 2.06-1.933 2.06Zm.033-3.416c-.623 0-1.022.582-1.022 1.396 0 .799.407 1.381 1.014 1.381.606 0 1.013-.622 1.013-1.397 0-.79-.399-1.38-1.005-1.38Zm8.365-.55-1.214 3.878h-.79l-.503-1.684a12.81 12.81 0 0 1-.312-1.253h-.016a8.404 8.404 0 0 1-.311 1.253l-.535 1.684h-.799l-1.142-3.879h.886l.44 1.844c.103.44.19.854.263 1.246h.016a12.7 12.7 0 0 1 .32-1.237l.55-1.852h.703l.528 1.812c.127.44.23.87.311 1.277h.023c.056-.398.145-.822.264-1.277l.471-1.812h.847Zm4.467 3.878h-.862V3.708c0-.686-.263-1.03-.782-1.03-.511 0-.863.44-.863.95v2.307h-.862v-2.77c0-.343-.008-.71-.032-1.11h.759l.04.6h.024c.232-.415.702-.679 1.23-.679.814 0 1.35.623 1.35 1.636l-.002 2.323Zm2.378 0h-.863V.276h.863v5.66Zm3.144.088c-1.133 0-1.869-.846-1.869-1.995 0-1.198.75-2.052 1.932-2.052 1.118 0 1.868.807 1.868 1.988.001 1.213-.774 2.06-1.931 2.06Zm.032-3.416c-.623 0-1.022.582-1.022 1.396 0 .799.408 1.381 1.013 1.381.607 0 1.013-.622 1.013-1.397.001-.79-.397-1.38-1.004-1.38Zm5.299 3.328-.063-.446h-.023c-.263.359-.647.534-1.134.534-.695 0-1.189-.487-1.189-1.141 0-.958.83-1.453 2.267-1.453v-.072c0-.51-.27-.766-.805-.766-.383 0-.718.096-1.014.288l-.175-.567c.359-.224.806-.336 1.332-.336 1.014 0 1.526.535 1.526 1.605V5.01c0 .391.017.695.056.926h-.778Zm-.118-1.932c-.958 0-1.439.232-1.439.782 0 .408.248.607.592.607.439 0 .847-.335.847-.79v-.599Zm5.026 1.932-.04-.622h-.024c-.247.47-.664.71-1.245.71-.936 0-1.628-.822-1.628-1.98 0-1.213.718-2.067 1.698-2.067.52 0 .887.175 1.095.527h.017V.276h.863V4.89c0 .375.009.726.032 1.045h-.768Zm-.127-2.282c0-.543-.36-1.006-.908-1.006-.64 0-1.03.567-1.03 1.364 0 .783.405 1.318 1.012 1.318.543 0 .926-.471.926-1.03v-.646Zm6.335 2.37c-1.133 0-1.868-.846-1.868-1.995 0-1.198.75-2.052 1.932-2.052 1.118 0 1.869.807 1.869 1.988 0 1.213-.774 2.06-1.933 2.06Zm.032-3.416c-.622 0-1.02.582-1.02 1.396 0 .799.406 1.381 1.012 1.381.607 0 1.014-.622 1.014-1.397.001-.79-.398-1.38-1.006-1.38Zm6.538 3.328h-.864V3.708c0-.686-.263-1.03-.782-1.03-.51 0-.861.44-.861.95v2.307h-.863v-2.77c0-.343-.009-.71-.032-1.11h.758l.04.6h.024c.231-.415.703-.68 1.23-.68.814 0 1.35.623 1.35 1.637v2.323Zm5.8-3.232h-.948v1.883c0 .48.166.72.502.72.152 0 .28-.017.383-.041l.023.655c-.167.064-.39.096-.669.096-.68 0-1.085-.375-1.085-1.357V2.703h-.567v-.647h.567v-.71l.846-.256v.965h.949v.648Zm4.565 3.232h-.861v-2.21c0-.695-.263-1.046-.783-1.046-.446 0-.863.303-.863.918v2.338h-.861V.276h.861v2.33h.018c.271-.422.664-.63 1.166-.63.821 0 1.323.638 1.323 1.652v2.307Zm4.677-1.732h-2.588c.017.735.503 1.15 1.223 1.15.382 0 .734-.065 1.045-.184l.135.598c-.367.16-.8.24-1.302.24-1.214 0-1.932-.767-1.932-1.955 0-1.19.736-2.084 1.835-2.084.991 0 1.613.735 1.613 1.844.006.131-.004.262-.03.391Zm-.791-.614c0-.6-.302-1.022-.853-1.022-.495 0-.887.431-.943 1.022h1.796Z" fill="#fff"/></svg>